<svg xmlns="http://www.w3.org/2000/svg" viewBox="0 0 1100 350" font-family="Inter, system-ui, sans-serif">
  <rect width="1100" height="350" fill="#f4f6f9"/>

  <!-- Günün programı -->
  <rect x="20" y="20" width="350" height="320" rx="8" fill="#fff" stroke="#dee2e6"/>
  <text x="40" y="50" font-size="14" font-weight="700" fill="#212529">📅 Günün Ders Programı</text>
  <line x1="40" y1="62" x2="350" y2="62" stroke="#e9ecef"/>
  <g font-size="12">
    <text x="40" y="90" fill="#6c757d" font-weight="600">09:00–10:30</text>
    <text x="40" y="108" fill="#212529" font-weight="600">9-A · Matematik</text>
    <text x="40" y="124" fill="#6c757d">Ali Yılmaz</text>

    <text x="40" y="150" fill="#6c757d" font-weight="600">10:45–12:15</text>
    <text x="40" y="168" fill="#212529" font-weight="600">9-B · Türkçe</text>
    <text x="40" y="184" fill="#6c757d">Ayşe Kaya</text>

    <text x="40" y="210" fill="#6c757d" font-weight="600">13:00–14:30</text>
    <text x="40" y="228" fill="#212529" font-weight="600">10-A · Fizik</text>
    <text x="40" y="244" fill="#6c757d">Mehmet Demir</text>

    <text x="40" y="270" fill="#6c757d" font-weight="600">14:45–16:15</text>
    <text x="40" y="288" fill="#212529" font-weight="600">11-A · Kimya</text>
    <text x="40" y="304" fill="#6c757d">Selin Öztürk</text>
  </g>

  <!-- Son duyurular -->
  <rect x="385" y="20" width="350" height="320" rx="8" fill="#fff" stroke="#dee2e6"/>
  <text x="405" y="50" font-size="14" font-weight="700" fill="#212529">📣 Son Duyurular</text>
  <line x1="405" y1="62" x2="715" y2="62" stroke="#e9ecef"/>
  <g font-size="12" fill="#495057">
    <text x="405" y="90">▸ Yarın TYT denemesi (09:00)</text>
    <text x="405" y="118">▸ Veli toplantısı 12 Mayıs Cuma</text>
    <text x="405" y="146">▸ Karne dağıtımı 25 Mayıs</text>
    <text x="405" y="174">▸ Yaz dönemi kayıt başladı</text>
    <text x="405" y="202">▸ Bayram tatili 1-3 Haziran</text>
    <text x="405" y="230">▸ Etüt programı güncellendi</text>
    <text x="405" y="258">▸ Yeni kütüphane kuralları</text>
  </g>

  <!-- Yaklaşan ödemeler -->
  <rect x="750" y="20" width="330" height="320" rx="8" fill="#fff" stroke="#dee2e6"/>
  <text x="770" y="50" font-size="14" font-weight="700" fill="#212529">💸 Yaklaşan Ödemeler</text>
  <line x1="770" y1="62" x2="1060" y2="62" stroke="#e9ecef"/>
  <g font-size="11">
    <text x="770" y="90" fill="#212529" font-weight="600">10.05 · Demo Öğrenci 1</text>
    <text x="770" y="106" fill="#dc3545">2/8 taksit · 1.250 ₺</text>

    <text x="770" y="135" fill="#212529" font-weight="600">12.05 · Demo Öğrenci 2</text>
    <text x="770" y="151" fill="#fd7e14">3/12 taksit · 980 ₺</text>

    <text x="770" y="180" fill="#212529" font-weight="600">15.05 · Demo Öğrenci 3</text>
    <text x="770" y="196" fill="#fd7e14">5/10 taksit · 1.500 ₺</text>

    <text x="770" y="225" fill="#212529" font-weight="600">18.05 · Demo Öğrenci 4</text>
    <text x="770" y="241" fill="#fd7e14">1/6 taksit · 2.250 ₺</text>

    <text x="770" y="270" fill="#212529" font-weight="600">21.05 · Demo Öğrenci 5</text>
    <text x="770" y="286" fill="#fd7e14">7/8 taksit · 850 ₺</text>
  </g>
  <rect x="770" y="305" width="290" height="22" rx="4" fill="#0d6efd" opacity="0.1"/>
  <text x="915" y="320" text-anchor="middle" font-size="11" fill="#0d6efd" font-weight="600">Tümünü Gör →</text>
</svg>
