<svg xmlns="http://www.w3.org/2000/svg" viewBox="0 0 1280 720" font-family="Inter, system-ui, sans-serif">
  <rect width="1280" height="720" fill="#f4f6f9"/>
  <rect x="0" y="0" width="1280" height="60" fill="#0d6efd"/>
  <text x="24" y="38" font-size="20" fill="#fff">🎓 Bilfen</text>
  <rect x="0" y="60" width="240" height="660" fill="#212529"/>
  <rect x="12" y="80" width="216" height="36" rx="6" fill="rgba(13,110,253,0.25)"/>
  <text x="28" y="103" font-size="13" fill="#fff" font-weight="600">📋 Kayıt</text>
  <g font-size="13" fill="rgba(255,255,255,0.85)">
    <text x="28" y="148">🏠 Ana Sayfa</text>
    <text x="28" y="178">📅 Devamsızlık</text>
    <text x="28" y="208">📝 Not Defteri</text>
    <text x="28" y="238">💰 Muhasebe</text>
  </g>

  <!-- Header + button -->
  <text x="270" y="100" font-size="22" font-weight="700" fill="#212529">Öğrenci Listesi</text>
  <text x="270" y="124" font-size="13" fill="#6c757d">Toplam 247 aktif öğrenci</text>
  <rect x="1090" y="85" width="170" height="40" rx="6" fill="#198754"/>
  <text x="1175" y="111" text-anchor="middle" font-size="13" fill="#fff" font-weight="600">+ YENİ ÖĞRENCİ</text>

  <!-- Filter bar -->
  <rect x="270" y="150" width="990" height="60" rx="6" fill="#fff" stroke="#dee2e6"/>
  <rect x="290" y="166" width="280" height="32" rx="4" fill="#fff" stroke="#ced4da"/>
  <text x="305" y="187" font-size="12" fill="#adb5bd">🔍 Ad, soyad, telefon ara...</text>
  <rect x="585" y="166" width="160" height="32" rx="4" fill="#fff" stroke="#ced4da"/>
  <text x="600" y="187" font-size="12" fill="#495057">Sınıf: Tümü ▾</text>
  <rect x="760" y="166" width="160" height="32" rx="4" fill="#fff" stroke="#ced4da"/>
  <text x="775" y="187" font-size="12" fill="#495057">Dönem: 2026 Yaz ▾</text>
  <rect x="935" y="166" width="100" height="32" rx="4" fill="#0d6efd"/>
  <text x="985" y="187" text-anchor="middle" font-size="12" fill="#fff" font-weight="600">Filtrele</text>

  <!-- Table -->
  <rect x="270" y="225" width="990" height="465" rx="6" fill="#fff" stroke="#dee2e6"/>
  <rect x="270" y="225" width="990" height="40" fill="#f8f9fa"/>
  <line x1="270" y1="265" x2="1260" y2="265" stroke="#dee2e6"/>

  <g font-size="11" fill="#6c757d" font-weight="600">
    <text x="290" y="250">AD SOYAD</text>
    <text x="500" y="250">TC</text>
    <text x="620" y="250">TELEFON</text>
    <text x="780" y="250">SINIF</text>
    <text x="870" y="250">VELİ</text>
    <text x="1020" y="250">DURUM</text>
    <text x="1120" y="250">İŞLEM</text>
  </g>

  <g font-size="12">
    <!-- rows -->
    <text x="290" y="295" fill="#212529" font-weight="600">Demo Öğrenci 1</text>
    <text x="500" y="295" fill="#6c757d">12345678901</text>
    <text x="620" y="295" fill="#495057">0532 111 22 33</text>
    <text x="780" y="295" fill="#495057">9-A</text>
    <text x="870" y="295" fill="#495057">Demo Veli 1</text>
    <rect x="1010" y="282" width="60" height="22" rx="11" fill="#198754"/>
    <text x="1040" y="297" text-anchor="middle" font-size="10" fill="#fff" font-weight="600">Aktif</text>
    <rect x="1115" y="280" width="60" height="26" rx="4" fill="#0d6efd"/>
    <text x="1145" y="297" text-anchor="middle" font-size="11" fill="#fff">Aç ›</text>
    <line x1="270" y1="315" x2="1260" y2="315" stroke="#f1f3f5"/>

    <text x="290" y="345" fill="#212529" font-weight="600">Demo Öğrenci 2</text>
    <text x="500" y="345" fill="#6c757d">12345678902</text>
    <text x="620" y="345" fill="#495057">0533 222 33 44</text>
    <text x="780" y="345" fill="#495057">10-B</text>
    <text x="870" y="345" fill="#495057">Demo Veli 2</text>
    <rect x="1010" y="332" width="60" height="22" rx="11" fill="#198754"/>
    <text x="1040" y="347" text-anchor="middle" font-size="10" fill="#fff" font-weight="600">Aktif</text>
    <rect x="1115" y="330" width="60" height="26" rx="4" fill="#0d6efd"/>
    <text x="1145" y="347" text-anchor="middle" font-size="11" fill="#fff">Aç ›</text>
    <line x1="270" y1="365" x2="1260" y2="365" stroke="#f1f3f5"/>

    <text x="290" y="395" fill="#212529" font-weight="600">Demo Öğrenci 3</text>
    <text x="500" y="395" fill="#6c757d">12345678903</text>
    <text x="620" y="395" fill="#495057">0534 333 44 55</text>
    <text x="780" y="395" fill="#495057">11-A</text>
    <text x="870" y="395" fill="#495057">Demo Veli 3</text>
    <rect x="1010" y="382" width="60" height="22" rx="11" fill="#198754"/>
    <text x="1040" y="397" text-anchor="middle" font-size="10" fill="#fff" font-weight="600">Aktif</text>
    <rect x="1115" y="380" width="60" height="26" rx="4" fill="#0d6efd"/>
    <text x="1145" y="397" text-anchor="middle" font-size="11" fill="#fff">Aç ›</text>
    <line x1="270" y1="415" x2="1260" y2="415" stroke="#f1f3f5"/>

    <text x="290" y="445" fill="#212529" font-weight="600">Demo Öğrenci 4</text>
    <text x="500" y="445" fill="#6c757d">12345678904</text>
    <text x="620" y="445" fill="#495057">0535 444 55 66</text>
    <text x="780" y="445" fill="#495057">12-A</text>
    <text x="870" y="445" fill="#495057">Demo Veli 4</text>
    <rect x="1010" y="432" width="65" height="22" rx="11" fill="#6c757d"/>
    <text x="1042" y="447" text-anchor="middle" font-size="10" fill="#fff" font-weight="600">Pasif</text>
    <rect x="1115" y="430" width="60" height="26" rx="4" fill="#0d6efd"/>
    <text x="1145" y="447" text-anchor="middle" font-size="11" fill="#fff">Aç ›</text>
    <line x1="270" y1="465" x2="1260" y2="465" stroke="#f1f3f5"/>

    <text x="290" y="495" fill="#212529" font-weight="600">Demo Öğrenci 5</text>
    <text x="500" y="495" fill="#6c757d">12345678905</text>
    <text x="620" y="495" fill="#495057">0536 555 66 77</text>
    <text x="780" y="495" fill="#495057">9-B</text>
    <text x="870" y="495" fill="#495057">Demo Veli 5</text>
    <rect x="1010" y="482" width="60" height="22" rx="11" fill="#198754"/>
    <text x="1040" y="497" text-anchor="middle" font-size="10" fill="#fff" font-weight="600">Aktif</text>
    <rect x="1115" y="480" width="60" height="26" rx="4" fill="#0d6efd"/>
    <text x="1145" y="497" text-anchor="middle" font-size="11" fill="#fff">Aç ›</text>
    <line x1="270" y1="515" x2="1260" y2="515" stroke="#f1f3f5"/>

    <text x="290" y="545" fill="#adb5bd" font-style="italic">... (242 satır daha)</text>
  </g>

  <!-- Pagination -->
  <text x="290" y="660" font-size="12" fill="#6c757d">Toplam 247 kayıt</text>
  <g>
    <rect x="1080" y="645" width="34" height="30" rx="4" fill="#fff" stroke="#dee2e6"/>
    <text x="1097" y="664" text-anchor="middle" font-size="13">‹</text>
    <rect x="1118" y="645" width="34" height="30" rx="4" fill="#0d6efd"/>
    <text x="1135" y="664" text-anchor="middle" font-size="13" fill="#fff">1</text>
    <rect x="1156" y="645" width="34" height="30" rx="4" fill="#fff" stroke="#dee2e6"/>
    <text x="1173" y="664" text-anchor="middle" font-size="13">2</text>
    <rect x="1194" y="645" width="34" height="30" rx="4" fill="#fff" stroke="#dee2e6"/>
    <text x="1211" y="664" text-anchor="middle" font-size="13">3</text>
    <rect x="1232" y="645" width="34" height="30" rx="4" fill="#fff" stroke="#dee2e6"/>
    <text x="1249" y="664" text-anchor="middle" font-size="13">›</text>
  </g>
</svg>
