<svg xmlns="http://www.w3.org/2000/svg" viewBox="0 0 1280 720" font-family="Inter, system-ui, sans-serif">
  <rect width="1280" height="720" fill="#f4f6f9"/>
  <rect x="0" y="0" width="1280" height="60" fill="#0d6efd"/>
  <text x="24" y="38" font-size="20" fill="#fff">🎓 Bilfen</text>
  <rect x="0" y="60" width="240" height="660" fill="#212529"/>

  <text x="270" y="100" font-size="22" font-weight="700" fill="#212529">Toplu Öğrenci Yükleme — Önizleme</text>
  <text x="270" y="124" font-size="13" fill="#6c757d">ogrenci_listesi_2026_yaz.xlsx · 28 satır</text>

  <!-- Stats -->
  <g>
    <rect x="270" y="150" width="200" height="80" rx="6" fill="#fff" stroke="#dee2e6"/>
    <text x="290" y="178" font-size="11" fill="#6c757d" font-weight="600">TOPLAM</text>
    <text x="290" y="215" font-size="28" font-weight="700" fill="#212529">28</text>

    <rect x="490" y="150" width="200" height="80" rx="6" fill="#d4edda"/>
    <text x="510" y="178" font-size="11" fill="#155724" font-weight="600">✓ HAZIR (KAYDEDİLECEK)</text>
    <text x="510" y="215" font-size="28" font-weight="700" fill="#155724">25</text>

    <rect x="710" y="150" width="200" height="80" rx="6" fill="#f8d7da"/>
    <text x="730" y="178" font-size="11" fill="#721c24" font-weight="600">⚠️  HATALI (ATLANIR)</text>
    <text x="730" y="215" font-size="28" font-weight="700" fill="#721c24">3</text>
  </g>

  <!-- Table -->
  <rect x="270" y="250" width="990" height="380" rx="6" fill="#fff" stroke="#dee2e6"/>
  <rect x="270" y="250" width="990" height="36" fill="#f8f9fa"/>
  <line x1="270" y1="286" x2="1260" y2="286" stroke="#dee2e6"/>

  <g font-size="11" fill="#6c757d" font-weight="600">
    <text x="290" y="272">#</text>
    <text x="335" y="272">AD SOYAD</text>
    <text x="510" y="272">TC</text>
    <text x="640" y="272">SINIF</text>
    <text x="720" y="272">VELİ TEL</text>
    <text x="870" y="272">ÜCRET</text>
    <text x="970" y="272">DURUM</text>
  </g>

  <g font-size="11">
    <!-- OK rows -->
    <rect x="270" y="286" width="990" height="36" fill="#d4edda" opacity="0.5"/>
    <text x="290" y="308" fill="#155724">1</text>
    <text x="335" y="308" fill="#212529">Demo Öğrenci 1</text>
    <text x="510" y="308" fill="#495057" font-family="monospace">12345678901</text>
    <text x="640" y="308" fill="#495057">9-A</text>
    <text x="720" y="308" fill="#495057">0532 111 22 33</text>
    <text x="870" y="308" fill="#495057">12.000 ₺</text>
    <text x="970" y="308" fill="#155724" font-weight="600">✓ Hazır</text>
    <line x1="270" y1="322" x2="1260" y2="322" stroke="#fff"/>

    <rect x="270" y="322" width="990" height="36" fill="#d4edda" opacity="0.5"/>
    <text x="290" y="344" fill="#155724">2</text>
    <text x="335" y="344" fill="#212529">Demo Öğrenci 2</text>
    <text x="510" y="344" fill="#495057" font-family="monospace">12345678902</text>
    <text x="640" y="344" fill="#495057">10-B</text>
    <text x="720" y="344" fill="#495057">0533 222 33 44</text>
    <text x="870" y="344" fill="#495057">14.000 ₺</text>
    <text x="970" y="344" fill="#155724" font-weight="600">✓ Hazır</text>
    <line x1="270" y1="358" x2="1260" y2="358" stroke="#fff"/>

    <!-- ERROR row -->
    <rect x="270" y="358" width="990" height="36" fill="#f8d7da" opacity="0.6"/>
    <text x="290" y="380" fill="#721c24">3</text>
    <text x="335" y="380" fill="#212529">Demo Öğrenci 3</text>
    <text x="510" y="380" fill="#dc3545" font-family="monospace">123456789</text>
    <text x="640" y="380" fill="#495057">9-X</text>
    <text x="720" y="380" fill="#495057">eksik</text>
    <text x="870" y="380" fill="#495057">12.000 ₺</text>
    <text x="970" y="380" fill="#721c24" font-weight="600">✗ TC eksik · sınıf yok</text>
    <line x1="270" y1="394" x2="1260" y2="394" stroke="#fff"/>

    <rect x="270" y="394" width="990" height="36" fill="#d4edda" opacity="0.5"/>
    <text x="290" y="416" fill="#155724">4</text>
    <text x="335" y="416" fill="#212529">Demo Öğrenci 4</text>
    <text x="510" y="416" fill="#495057" font-family="monospace">12345678904</text>
    <text x="640" y="416" fill="#495057">12-A</text>
    <text x="720" y="416" fill="#495057">0535 444 55 66</text>
    <text x="870" y="416" fill="#495057">16.000 ₺</text>
    <text x="970" y="416" fill="#155724" font-weight="600">✓ Hazır</text>
    <line x1="270" y1="430" x2="1260" y2="430" stroke="#fff"/>

    <rect x="270" y="430" width="990" height="36" fill="#f8d7da" opacity="0.6"/>
    <text x="290" y="452" fill="#721c24">5</text>
    <text x="335" y="452" fill="#dc3545">Demo</text>
    <text x="510" y="452" fill="#495057" font-family="monospace">12345678905</text>
    <text x="640" y="452" fill="#495057">9-B</text>
    <text x="720" y="452" fill="#495057">0536 555 66 77</text>
    <text x="870" y="452" fill="#dc3545">abc</text>
    <text x="970" y="452" fill="#721c24" font-weight="600">✗ Soyad yok · ücret sayı değil</text>
    <line x1="270" y1="466" x2="1260" y2="466" stroke="#fff"/>

    <rect x="270" y="466" width="990" height="36" fill="#d4edda" opacity="0.5"/>
    <text x="290" y="488" fill="#155724">6</text>
    <text x="335" y="488" fill="#212529">Demo Öğrenci 6</text>
    <text x="510" y="488" fill="#495057" font-family="monospace">12345678906</text>
    <text x="640" y="488" fill="#495057">11-A</text>
    <text x="720" y="488" fill="#495057">0537 666 77 88</text>
    <text x="870" y="488" fill="#495057">15.000 ₺</text>
    <text x="970" y="488" fill="#155724" font-weight="600">✓ Hazır</text>

    <text x="775" y="540" text-anchor="middle" fill="#adb5bd" font-style="italic">... 22 satır daha</text>
  </g>

  <!-- Footer -->
  <rect x="270" y="650" width="990" height="50" rx="6" fill="#fff" stroke="#dee2e6"/>
  <rect x="290" y="660" width="160" height="32" rx="4" fill="#fff" stroke="#dee2e6"/>
  <text x="370" y="681" text-anchor="middle" font-size="12" fill="#495057">‹ Yeni Dosya Yükle</text>
  <rect x="1080" y="660" width="170" height="32" rx="4" fill="#198754"/>
  <text x="1165" y="681" text-anchor="middle" font-size="12" fill="#fff" font-weight="600">✓ 25 KAYDI YAZ</text>
</svg>
