<svg xmlns="http://www.w3.org/2000/svg" viewBox="0 0 1280 600" font-family="Inter, system-ui, sans-serif">
  <rect width="1280" height="600" fill="#f4f6f9"/>
  <rect x="0" y="0" width="1280" height="60" fill="#0d6efd"/>
  <text x="24" y="38" font-size="20" fill="#fff">🎓 Bilfen</text>
  <rect x="0" y="60" width="240" height="540" fill="#212529"/>

  <text x="270" y="100" font-size="22" font-weight="700" fill="#212529">📊 Aylık Devamsızlık Raporu</text>
  <text x="270" y="124" font-size="13" fill="#6c757d">Mayıs 2026 · Tüm sınıflar</text>

  <!-- Bar chart - sınıf bazlı -->
  <rect x="270" y="150" width="600" height="280" rx="6" fill="#fff" stroke="#dee2e6"/>
  <text x="290" y="178" font-size="13" font-weight="700" fill="#212529">Sınıf Bazlı Devamsızlık (gün)</text>
  <line x1="290" y1="188" x2="850" y2="188" stroke="#e9ecef"/>

  <!-- Bars -->
  <g>
    <text x="310" y="220" font-size="12" fill="#495057">9-A</text>
    <rect x="350" y="207" width="280" height="18" rx="3" fill="#0d6efd"/>
    <text x="640" y="220" font-size="12" fill="#212529" font-weight="600">42 gün</text>

    <text x="310" y="247" font-size="12" fill="#495057">9-B</text>
    <rect x="350" y="234" width="220" height="18" rx="3" fill="#0d6efd"/>
    <text x="580" y="247" font-size="12" fill="#212529" font-weight="600">33 gün</text>

    <text x="310" y="274" font-size="12" fill="#495057">10-A</text>
    <rect x="350" y="261" width="180" height="18" rx="3" fill="#0d6efd"/>
    <text x="540" y="274" font-size="12" fill="#212529" font-weight="600">27 gün</text>

    <text x="310" y="301" font-size="12" fill="#495057">10-B</text>
    <rect x="350" y="288" width="320" height="18" rx="3" fill="#dc3545"/>
    <text x="680" y="301" font-size="12" fill="#dc3545" font-weight="600">48 gün ⚠️</text>

    <text x="310" y="328" font-size="12" fill="#495057">11-A</text>
    <rect x="350" y="315" width="140" height="18" rx="3" fill="#0d6efd"/>
    <text x="500" y="328" font-size="12" fill="#212529" font-weight="600">21 gün</text>

    <text x="310" y="355" font-size="12" fill="#495057">11-B</text>
    <rect x="350" y="342" width="160" height="18" rx="3" fill="#0d6efd"/>
    <text x="520" y="355" font-size="12" fill="#212529" font-weight="600">24 gün</text>

    <text x="310" y="382" font-size="12" fill="#495057">12-A</text>
    <rect x="350" y="369" width="100" height="18" rx="3" fill="#198754"/>
    <text x="460" y="382" font-size="12" fill="#212529" font-weight="600">15 gün</text>

    <text x="310" y="409" font-size="12" fill="#495057">12-B</text>
    <rect x="350" y="396" width="80" height="18" rx="3" fill="#198754"/>
    <text x="440" y="409" font-size="12" fill="#212529" font-weight="600">12 gün</text>
  </g>

  <!-- Top 10 -->
  <rect x="890" y="150" width="370" height="280" rx="6" fill="#fff" stroke="#dee2e6"/>
  <text x="910" y="178" font-size="13" font-weight="700" fill="#dc3545">⚠️  En Çok Devamsızlık (Top 10)</text>
  <line x1="910" y1="188" x2="1240" y2="188" stroke="#e9ecef"/>
  <g font-size="12">
    <text x="910" y="215" fill="#212529" font-weight="600">1. Demo Öğrenci 8 (10-B)</text>
    <text x="1180" y="215" fill="#dc3545" font-weight="600">12 gün</text>
    <text x="910" y="240" fill="#212529" font-weight="600">2. Demo Öğrenci 5 (9-A)</text>
    <text x="1180" y="240" fill="#dc3545" font-weight="600">9 gün</text>
    <text x="910" y="265" fill="#212529" font-weight="600">3. Demo Öğrenci 12 (10-B)</text>
    <text x="1180" y="265" fill="#fd7e14" font-weight="600">8 gün</text>
    <text x="910" y="290" fill="#212529" font-weight="600">4. Demo Öğrenci 22 (10-B)</text>
    <text x="1180" y="290" fill="#fd7e14" font-weight="600">7 gün</text>
    <text x="910" y="315" fill="#212529" font-weight="600">5. Demo Öğrenci 17 (9-B)</text>
    <text x="1180" y="315" fill="#fd7e14" font-weight="600">6 gün</text>
    <text x="910" y="340" fill="#212529">6. Demo Öğrenci 31 (11-A)</text>
    <text x="1180" y="340" fill="#495057">5 gün</text>
    <text x="910" y="365" fill="#212529">7. Demo Öğrenci 44 (10-A)</text>
    <text x="1180" y="365" fill="#495057">5 gün</text>
    <text x="910" y="390" fill="#212529">8. Demo Öğrenci 9 (9-A)</text>
    <text x="1180" y="390" fill="#495057">4 gün</text>
    <text x="910" y="415" fill="#212529">9. Demo Öğrenci 28 (12-A)</text>
    <text x="1180" y="415" fill="#495057">4 gün</text>
  </g>

  <!-- Footer summary + export buttons -->
  <rect x="270" y="450" width="990" height="90" rx="6" fill="#fff" stroke="#dee2e6"/>
  <text x="290" y="480" font-size="13" font-weight="700" fill="#212529">📈 ÖZET</text>
  <text x="290" y="505" font-size="12" fill="#495057">Toplam ders günü: <tspan font-weight="600">22</tspan>   ·   Toplam yoklama: <tspan font-weight="600">5.434</tspan></text>
  <text x="290" y="525" font-size="12" fill="#495057">Devamsızlık oranı: <tspan font-weight="600" fill="#198754">%4.05</tspan>   ·   Geçen aydan: <tspan font-weight="600" fill="#198754">▼ 0.8</tspan></text>

  <rect x="970" y="475" width="120" height="32" rx="4" fill="#198754"/>
  <text x="1030" y="496" text-anchor="middle" font-size="12" fill="#fff" font-weight="600">📊 Excel</text>
  <rect x="1100" y="475" width="120" height="32" rx="4" fill="#dc3545"/>
  <text x="1160" y="496" text-anchor="middle" font-size="12" fill="#fff" font-weight="600">📄 PDF</text>
</svg>
