<svg xmlns="http://www.w3.org/2000/svg" viewBox="0 0 1280 600" font-family="Inter, system-ui, sans-serif">
  <rect width="1280" height="600" fill="#f4f6f9"/>
  <rect x="0" y="0" width="1280" height="60" fill="#0d6efd"/>
  <text x="24" y="38" font-size="20" fill="#fff">🎓 Bilfen</text>
  <rect x="0" y="60" width="240" height="540" fill="#212529"/>

  <text x="270" y="100" font-size="22" font-weight="700" fill="#212529">📨 SMS Gönderim Geçmişi</text>

  <!-- Filters -->
  <rect x="270" y="135" width="990" height="60" rx="6" fill="#fff" stroke="#dee2e6"/>
  <rect x="290" y="150" width="180" height="30" rx="4" fill="#fff" stroke="#ced4da"/>
  <text x="302" y="170" font-size="12" fill="#495057">Tarih: 01.05 → 08.05</text>
  <rect x="490" y="150" width="160" height="30" rx="4" fill="#fff" stroke="#ced4da"/>
  <text x="502" y="170" font-size="12" fill="#495057">Tip: Devamsızlık ▾</text>
  <rect x="670" y="150" width="180" height="30" rx="4" fill="#fff" stroke="#ced4da"/>
  <text x="682" y="170" font-size="12" fill="#495057">Durum: Tümü ▾</text>
  <rect x="870" y="150" width="100" height="30" rx="4" fill="#0d6efd"/>
  <text x="920" y="170" text-anchor="middle" font-size="12" fill="#fff" font-weight="600">Filtrele</text>

  <!-- Stats bar -->
  <g>
    <rect x="270" y="215" width="240" height="60" rx="6" fill="#e3f2fd"/>
    <text x="290" y="240" font-size="11" fill="#0d6efd" font-weight="600">TOPLAM GÖNDERİM</text>
    <text x="290" y="265" font-size="22" font-weight="700" fill="#0d6efd">347</text>
    <rect x="525" y="215" width="240" height="60" rx="6" fill="#d4edda"/>
    <text x="545" y="240" font-size="11" fill="#155724" font-weight="600">✓ İLETİLDİ</text>
    <text x="545" y="265" font-size="22" font-weight="700" fill="#155724">342</text>
    <rect x="780" y="215" width="240" height="60" rx="6" fill="#f8d7da"/>
    <text x="800" y="240" font-size="11" fill="#721c24" font-weight="600">✗ BAŞARISIZ</text>
    <text x="800" y="265" font-size="22" font-weight="700" fill="#721c24">5</text>
    <rect x="1035" y="215" width="225" height="60" rx="6" fill="#fff3cd"/>
    <text x="1055" y="240" font-size="11" fill="#664d03" font-weight="600">💵 MALİYET (TL)</text>
    <text x="1055" y="265" font-size="22" font-weight="700" fill="#664d03">52,05</text>
  </g>

  <!-- Table -->
  <rect x="270" y="295" width="990" height="285" rx="6" fill="#fff" stroke="#dee2e6"/>
  <rect x="270" y="295" width="990" height="36" fill="#f8f9fa"/>
  <line x1="270" y1="331" x2="1260" y2="331" stroke="#dee2e6"/>
  <g font-size="11" fill="#6c757d" font-weight="600">
    <text x="290" y="318">TARİH-SAAT</text>
    <text x="430" y="318">ALICI</text>
    <text x="610" y="318">NUMARA</text>
    <text x="780" y="318">TİP</text>
    <text x="900" y="318">İÇERİK ÖZETİ</text>
    <text x="1180" y="318">DURUM</text>
  </g>

  <g font-size="11">
    <text x="290" y="355" fill="#495057">08.05 14:23</text>
    <text x="430" y="355" fill="#212529">Demo Veli 2</text>
    <text x="610" y="355" fill="#495057" font-family="monospace">+90 5XX XXX 1234</text>
    <text x="780" y="355" fill="#0d6efd">Devamsızlık</text>
    <text x="900" y="355" fill="#6c757d">Sayın veli, Demo Öğrenci 2...</text>
    <rect x="1170" y="343" width="70" height="22" rx="11" fill="#198754"/>
    <text x="1205" y="358" text-anchor="middle" font-size="10" fill="#fff" font-weight="600">İletildi</text>
    <line x1="270" y1="375" x2="1260" y2="375" stroke="#f1f3f5"/>

    <text x="290" y="395" fill="#495057">08.05 14:23</text>
    <text x="430" y="395" fill="#212529">Demo Veli 8</text>
    <text x="610" y="395" fill="#495057" font-family="monospace">+90 5XX XXX 5678</text>
    <text x="780" y="395" fill="#0d6efd">Devamsızlık</text>
    <text x="900" y="395" fill="#6c757d">Sayın veli, Demo Öğrenci 8...</text>
    <rect x="1170" y="383" width="70" height="22" rx="11" fill="#198754"/>
    <text x="1205" y="398" text-anchor="middle" font-size="10" fill="#fff" font-weight="600">İletildi</text>
    <line x1="270" y1="415" x2="1260" y2="415" stroke="#f1f3f5"/>

    <text x="290" y="435" fill="#495057">07.05 14:18</text>
    <text x="430" y="435" fill="#212529">Demo Veli 3</text>
    <text x="610" y="435" fill="#495057" font-family="monospace">+90 5XX XXX 9012</text>
    <text x="780" y="435" fill="#0d6efd">Devamsızlık</text>
    <text x="900" y="435" fill="#6c757d">Sayın veli, Demo Öğrenci 3...</text>
    <rect x="1170" y="423" width="70" height="22" rx="11" fill="#198754"/>
    <text x="1205" y="438" text-anchor="middle" font-size="10" fill="#fff" font-weight="600">İletildi</text>
    <line x1="270" y1="455" x2="1260" y2="455" stroke="#f1f3f5"/>

    <text x="290" y="475" fill="#495057">07.05 09:00</text>
    <text x="430" y="475" fill="#212529">Tüm 9-A velileri</text>
    <text x="610" y="475" fill="#495057">29 numara</text>
    <text x="780" y="475" fill="#fd7e14">Toplu</text>
    <text x="900" y="475" fill="#6c757d">Yarın TYT denemesi 09:00...</text>
    <rect x="1170" y="463" width="70" height="22" rx="11" fill="#198754"/>
    <text x="1205" y="478" text-anchor="middle" font-size="10" fill="#fff" font-weight="600">29/29</text>
    <line x1="270" y1="495" x2="1260" y2="495" stroke="#f1f3f5"/>

    <text x="290" y="515" fill="#495057">06.05 14:23</text>
    <text x="430" y="515" fill="#dc3545">Demo Veli 5</text>
    <text x="610" y="515" fill="#495057" font-family="monospace">+90 5XX XXX 3456</text>
    <text x="780" y="515" fill="#0d6efd">Devamsızlık</text>
    <text x="900" y="515" fill="#dc3545">Sayın veli, Demo Öğrenci 5...</text>
    <rect x="1170" y="503" width="80" height="22" rx="11" fill="#dc3545"/>
    <text x="1210" y="518" text-anchor="middle" font-size="10" fill="#fff" font-weight="600">Numara hatalı</text>
    <line x1="270" y1="535" x2="1260" y2="535" stroke="#f1f3f5"/>

    <text x="290" y="555" fill="#495057">06.05 14:23</text>
    <text x="430" y="555" fill="#212529">Demo Veli 7</text>
    <text x="610" y="555" fill="#495057" font-family="monospace">+90 5XX XXX 7890</text>
    <text x="780" y="555" fill="#0d6efd">Devamsızlık</text>
    <text x="900" y="555" fill="#6c757d">Sayın veli, Demo Öğrenci 7...</text>
    <rect x="1170" y="543" width="70" height="22" rx="11" fill="#198754"/>
    <text x="1205" y="558" text-anchor="middle" font-size="10" fill="#fff" font-weight="600">İletildi</text>
  </g>
</svg>
