<svg xmlns="http://www.w3.org/2000/svg" viewBox="0 0 1280 720" font-family="Inter, system-ui, sans-serif">
  <rect width="1280" height="720" fill="#f4f6f9"/>
  <rect x="0" y="0" width="1280" height="60" fill="#0d6efd"/>
  <text x="24" y="38" font-size="20" fill="#fff">🎓 Bilfen</text>
  <rect x="0" y="60" width="240" height="660" fill="#212529"/>

  <text x="270" y="100" font-size="22" font-weight="700" fill="#212529">📅 Yoklama Al</text>
  <text x="270" y="124" font-size="13" fill="#6c757d">08.05.2026 Cuma · 9-A sınıfı</text>

  <!-- Top form -->
  <rect x="270" y="150" width="990" height="80" rx="6" fill="#fff" stroke="#dee2e6"/>
  <text x="290" y="180" font-size="11" fill="#6c757d" font-weight="600">SINIF</text>
  <rect x="290" y="190" width="200" height="30" rx="4" fill="#fff" stroke="#ced4da"/>
  <text x="302" y="210" font-size="13" fill="#212529">9-A ▾</text>

  <text x="510" y="180" font-size="11" fill="#6c757d" font-weight="600">TARİH</text>
  <rect x="510" y="190" width="180" height="30" rx="4" fill="#fff" stroke="#ced4da"/>
  <text x="522" y="210" font-size="13" fill="#212529">08.05.2026</text>

  <rect x="710" y="190" width="180" height="30" rx="4" fill="#198754"/>
  <text x="800" y="210" text-anchor="middle" font-size="12" fill="#fff" font-weight="600">✓ TÜMÜNÜ VAR İŞARETLE</text>

  <text x="1020" y="180" font-size="11" fill="#6c757d" font-weight="600">İSTATİSTİK</text>
  <text x="1020" y="205" font-size="13" fill="#198754" font-weight="600">22 var · 2 yok · 1 geç</text>

  <!-- Grid of student cards -->
  <g>
    <!-- Row 1 -->
    <g transform="translate(290,260)">
      <rect width="180" height="100" rx="6" fill="#fff" stroke="#198754" stroke-width="2"/>
      <text x="14" y="30" font-size="13" font-weight="600" fill="#212529">Demo Öğrenci 1</text>
      <text x="14" y="48" font-size="10" fill="#6c757d">No: 101</text>
      <rect x="10" y="60" width="50" height="32" rx="4" fill="#198754"/>
      <text x="35" y="80" text-anchor="middle" font-size="11" fill="#fff" font-weight="600">VAR ✓</text>
      <rect x="65" y="60" width="50" height="32" rx="4" fill="#fff" stroke="#dee2e6"/>
      <text x="90" y="80" text-anchor="middle" font-size="11" fill="#dc3545">YOK</text>
      <rect x="120" y="60" width="50" height="32" rx="4" fill="#fff" stroke="#dee2e6"/>
      <text x="145" y="80" text-anchor="middle" font-size="11" fill="#fd7e14">GEÇ</text>
    </g>

    <g transform="translate(490,260)">
      <rect width="180" height="100" rx="6" fill="#fff" stroke="#dc3545" stroke-width="2"/>
      <text x="14" y="30" font-size="13" font-weight="600" fill="#212529">Demo Öğrenci 2</text>
      <text x="14" y="48" font-size="10" fill="#6c757d">No: 102</text>
      <rect x="10" y="60" width="50" height="32" rx="4" fill="#fff" stroke="#dee2e6"/>
      <text x="35" y="80" text-anchor="middle" font-size="11" fill="#198754">VAR</text>
      <rect x="65" y="60" width="50" height="32" rx="4" fill="#dc3545"/>
      <text x="90" y="80" text-anchor="middle" font-size="11" fill="#fff" font-weight="600">YOK ✗</text>
      <rect x="120" y="60" width="50" height="32" rx="4" fill="#fff" stroke="#dee2e6"/>
      <text x="145" y="80" text-anchor="middle" font-size="11" fill="#fd7e14">GEÇ</text>
    </g>

    <g transform="translate(690,260)">
      <rect width="180" height="100" rx="6" fill="#fff" stroke="#198754" stroke-width="2"/>
      <text x="14" y="30" font-size="13" font-weight="600" fill="#212529">Demo Öğrenci 3</text>
      <text x="14" y="48" font-size="10" fill="#6c757d">No: 103</text>
      <rect x="10" y="60" width="50" height="32" rx="4" fill="#198754"/>
      <text x="35" y="80" text-anchor="middle" font-size="11" fill="#fff" font-weight="600">VAR ✓</text>
      <rect x="65" y="60" width="50" height="32" rx="4" fill="#fff" stroke="#dee2e6"/>
      <text x="90" y="80" text-anchor="middle" font-size="11" fill="#dc3545">YOK</text>
      <rect x="120" y="60" width="50" height="32" rx="4" fill="#fff" stroke="#dee2e6"/>
      <text x="145" y="80" text-anchor="middle" font-size="11" fill="#fd7e14">GEÇ</text>
    </g>

    <g transform="translate(890,260)">
      <rect width="180" height="100" rx="6" fill="#fff" stroke="#fd7e14" stroke-width="2"/>
      <text x="14" y="30" font-size="13" font-weight="600" fill="#212529">Demo Öğrenci 4</text>
      <text x="14" y="48" font-size="10" fill="#6c757d">No: 104</text>
      <rect x="10" y="60" width="50" height="32" rx="4" fill="#fff" stroke="#dee2e6"/>
      <text x="35" y="80" text-anchor="middle" font-size="11" fill="#198754">VAR</text>
      <rect x="65" y="60" width="50" height="32" rx="4" fill="#fff" stroke="#dee2e6"/>
      <text x="90" y="80" text-anchor="middle" font-size="11" fill="#dc3545">YOK</text>
      <rect x="120" y="60" width="50" height="32" rx="4" fill="#fd7e14"/>
      <text x="145" y="80" text-anchor="middle" font-size="11" fill="#fff" font-weight="600">GEÇ ⏰</text>
    </g>

    <g transform="translate(1090,260)">
      <rect width="180" height="100" rx="6" fill="#fff" stroke="#198754" stroke-width="2"/>
      <text x="14" y="30" font-size="13" font-weight="600" fill="#212529">Demo Öğrenci 5</text>
      <text x="14" y="48" font-size="10" fill="#6c757d">No: 105</text>
      <rect x="10" y="60" width="50" height="32" rx="4" fill="#198754"/>
      <text x="35" y="80" text-anchor="middle" font-size="11" fill="#fff" font-weight="600">VAR ✓</text>
      <rect x="65" y="60" width="50" height="32" rx="4" fill="#fff" stroke="#dee2e6"/>
      <text x="90" y="80" text-anchor="middle" font-size="11" fill="#dc3545">YOK</text>
      <rect x="120" y="60" width="50" height="32" rx="4" fill="#fff" stroke="#dee2e6"/>
      <text x="145" y="80" text-anchor="middle" font-size="11" fill="#fd7e14">GEÇ</text>
    </g>

    <!-- Row 2 -->
    <g transform="translate(290,375)">
      <rect width="180" height="100" rx="6" fill="#fff" stroke="#198754" stroke-width="2"/>
      <text x="14" y="30" font-size="13" font-weight="600" fill="#212529">Demo Öğrenci 6</text>
      <text x="14" y="48" font-size="10" fill="#6c757d">No: 106</text>
      <rect x="10" y="60" width="50" height="32" rx="4" fill="#198754"/>
      <text x="35" y="80" text-anchor="middle" font-size="11" fill="#fff" font-weight="600">VAR ✓</text>
    </g>
    <g transform="translate(490,375)">
      <rect width="180" height="100" rx="6" fill="#fff" stroke="#198754" stroke-width="2"/>
      <text x="14" y="30" font-size="13" font-weight="600" fill="#212529">Demo Öğrenci 7</text>
      <rect x="10" y="60" width="50" height="32" rx="4" fill="#198754"/>
      <text x="35" y="80" text-anchor="middle" font-size="11" fill="#fff" font-weight="600">VAR ✓</text>
    </g>
    <g transform="translate(690,375)">
      <rect width="180" height="100" rx="6" fill="#fff" stroke="#dc3545" stroke-width="2"/>
      <text x="14" y="30" font-size="13" font-weight="600" fill="#212529">Demo Öğrenci 8</text>
      <rect x="65" y="60" width="50" height="32" rx="4" fill="#dc3545"/>
      <text x="90" y="80" text-anchor="middle" font-size="11" fill="#fff" font-weight="600">YOK ✗</text>
    </g>
    <g transform="translate(890,375)">
      <rect width="180" height="100" rx="6" fill="#fff" stroke="#198754" stroke-width="2"/>
      <text x="14" y="30" font-size="13" font-weight="600" fill="#212529">Demo Öğrenci 9</text>
      <rect x="10" y="60" width="50" height="32" rx="4" fill="#198754"/>
      <text x="35" y="80" text-anchor="middle" font-size="11" fill="#fff" font-weight="600">VAR ✓</text>
    </g>
    <g transform="translate(1090,375)">
      <rect width="180" height="100" rx="6" fill="#fff" stroke="#dee2e6"/>
      <text x="14" y="30" font-size="13" font-weight="600" fill="#212529">Demo Öğrenci 10</text>
      <text x="90" y="80" text-anchor="middle" font-size="11" fill="#adb5bd" font-style="italic">— işaretlemedi —</text>
    </g>

    <text x="775" y="510" text-anchor="middle" fill="#adb5bd" font-style="italic">... 15 öğrenci daha</text>
  </g>

  <!-- Footer save button -->
  <rect x="270" y="660" width="990" height="50" rx="6" fill="#fff" stroke="#dee2e6"/>
  <text x="290" y="690" font-size="12" fill="#6c757d">⚠️  "Yok" işaretlilerin velilerine otomatik SMS gönderilecek</text>
  <rect x="1080" y="668" width="170" height="34" rx="6" fill="#198754"/>
  <text x="1165" y="690" text-anchor="middle" font-size="13" fill="#fff" font-weight="700">✓ YOKLAMAYI KAYDET</text>
</svg>
