<svg xmlns="http://www.w3.org/2000/svg" viewBox="0 0 1280 720" font-family="Inter, system-ui, sans-serif">
  <rect width="1280" height="720" fill="#f4f6f9"/>
  <rect x="0" y="0" width="1280" height="60" fill="#0d6efd"/>
  <text x="24" y="38" font-size="20" fill="#fff">🎓 Bilfen</text>
  <rect x="0" y="60" width="240" height="660" fill="#212529"/>

  <text x="270" y="100" font-size="22" font-weight="700" fill="#212529">📝 Not Girişi: 1. Yazılı — Matematik</text>
  <text x="270" y="124" font-size="13" fill="#6c757d">9-A · 08.05.2026 · Maks 100 puan</text>

  <!-- Auto-save indicator -->
  <text x="1100" y="105" font-size="12" fill="#198754">✓ Otomatik kaydedildi (3 sn önce)</text>

  <!-- Top stats -->
  <g>
    <rect x="270" y="150" width="200" height="60" rx="6" fill="#fff" stroke="#dee2e6"/>
    <text x="290" y="174" font-size="11" fill="#6c757d" font-weight="600">SINIF MEVCUT</text>
    <text x="290" y="200" font-size="20" font-weight="700" fill="#212529">28</text>

    <rect x="490" y="150" width="200" height="60" rx="6" fill="#fff" stroke="#dee2e6"/>
    <text x="510" y="174" font-size="11" fill="#198754" font-weight="600">NOT GİRİLEN</text>
    <text x="510" y="200" font-size="20" font-weight="700" fill="#198754">25 / 28</text>

    <rect x="710" y="150" width="200" height="60" rx="6" fill="#fff" stroke="#dee2e6"/>
    <text x="730" y="174" font-size="11" fill="#6c757d" font-weight="600">ORTALAMA</text>
    <text x="730" y="200" font-size="20" font-weight="700" fill="#212529">76.4</text>

    <rect x="930" y="150" width="200" height="60" rx="6" fill="#fff" stroke="#dee2e6"/>
    <text x="950" y="174" font-size="11" fill="#6c757d" font-weight="600">EN YÜKSEK / DÜŞÜK</text>
    <text x="950" y="200" font-size="14" font-weight="700"><tspan fill="#198754">98</tspan> / <tspan fill="#dc3545">42</tspan></text>
  </g>

  <!-- Note entry table -->
  <rect x="270" y="230" width="990" height="440" rx="6" fill="#fff" stroke="#dee2e6"/>
  <rect x="270" y="230" width="990" height="40" fill="#f8f9fa"/>
  <line x1="270" y1="270" x2="1260" y2="270" stroke="#dee2e6"/>
  <g font-size="11" fill="#6c757d" font-weight="600">
    <text x="290" y="255">#</text>
    <text x="350" y="255">AD SOYAD</text>
    <text x="600" y="255">NUMARA</text>
    <text x="730" y="255">ÖNCEKİ</text>
    <text x="850" y="255">PUAN</text>
    <text x="990" y="255">DURUM</text>
    <text x="1140" y="255">NOT</text>
  </g>

  <g font-size="12">
    <text x="290" y="295" fill="#212529" font-weight="600">1</text>
    <text x="350" y="295" fill="#212529">Demo Öğrenci 1</text>
    <text x="600" y="295" fill="#495057">101</text>
    <text x="730" y="295" fill="#6c757d">82</text>
    <rect x="830" y="278" width="80" height="32" rx="4" fill="#fff" stroke="#0d6efd" stroke-width="2"/>
    <text x="870" y="299" text-anchor="middle" font-size="14" font-weight="700" fill="#212529">88</text>
    <text x="990" y="295" fill="#198754">▲ +6</text>
    <text x="1140" y="295" fill="#adb5bd" font-style="italic">opsiyonel...</text>
    <line x1="270" y1="320" x2="1260" y2="320" stroke="#f1f3f5"/>

    <text x="290" y="345" fill="#212529" font-weight="600">2</text>
    <text x="350" y="345" fill="#212529">Demo Öğrenci 2</text>
    <text x="600" y="345" fill="#495057">102</text>
    <text x="730" y="345" fill="#6c757d">68</text>
    <rect x="830" y="328" width="80" height="32" rx="4" fill="#fff" stroke="#ced4da"/>
    <text x="870" y="349" text-anchor="middle" font-size="14" fill="#212529">75</text>
    <text x="990" y="345" fill="#198754">▲ +7</text>
    <line x1="270" y1="370" x2="1260" y2="370" stroke="#f1f3f5"/>

    <text x="290" y="395" fill="#212529" font-weight="600">3</text>
    <text x="350" y="395" fill="#212529">Demo Öğrenci 3</text>
    <text x="600" y="395" fill="#495057">103</text>
    <text x="730" y="395" fill="#6c757d">95</text>
    <rect x="830" y="378" width="80" height="32" rx="4" fill="#fff" stroke="#ced4da"/>
    <text x="870" y="399" text-anchor="middle" font-size="14" fill="#198754" font-weight="700">98</text>
    <text x="990" y="395" fill="#198754">▲ +3 ⭐</text>
    <text x="1140" y="395" fill="#495057">Çok başarılı</text>
    <line x1="270" y1="420" x2="1260" y2="420" stroke="#f1f3f5"/>

    <text x="290" y="445" fill="#212529" font-weight="600">4</text>
    <text x="350" y="445" fill="#212529">Demo Öğrenci 4</text>
    <text x="600" y="445" fill="#495057">104</text>
    <text x="730" y="445" fill="#6c757d">55</text>
    <rect x="830" y="428" width="80" height="32" rx="4" fill="#fff" stroke="#ced4da"/>
    <text x="870" y="449" text-anchor="middle" font-size="14" fill="#dc3545" font-weight="700">42</text>
    <text x="990" y="445" fill="#dc3545">▼ -13 ⚠️</text>
    <text x="1140" y="445" fill="#dc3545">Zorlandı</text>
    <line x1="270" y1="470" x2="1260" y2="470" stroke="#f1f3f5"/>

    <text x="290" y="495" fill="#212529" font-weight="600">5</text>
    <text x="350" y="495" fill="#212529">Demo Öğrenci 5</text>
    <text x="600" y="495" fill="#495057">105</text>
    <text x="730" y="495" fill="#6c757d">71</text>
    <rect x="830" y="478" width="80" height="32" rx="4" fill="#fff" stroke="#ced4da"/>
    <text x="870" y="499" text-anchor="middle" font-size="14" fill="#212529">79</text>
    <text x="990" y="495" fill="#198754">▲ +8</text>
    <line x1="270" y1="520" x2="1260" y2="520" stroke="#f1f3f5"/>

    <text x="290" y="545" fill="#212529" font-weight="600">6</text>
    <text x="350" y="545" fill="#212529">Demo Öğrenci 6</text>
    <text x="600" y="545" fill="#495057">106</text>
    <text x="730" y="545" fill="#6c757d">88</text>
    <rect x="830" y="528" width="80" height="32" rx="4" fill="#fff" stroke="#ced4da"/>
    <text x="870" y="549" text-anchor="middle" font-size="14" fill="#fd7e14" font-style="italic" fill-opacity="0.7">—</text>
    <text x="990" y="545" fill="#fd7e14">Henüz girilmedi</text>

    <text x="775" y="620" text-anchor="middle" fill="#adb5bd" font-style="italic">... 22 öğrenci daha (Tab ile geçiş yapın)</text>
  </g>

  <!-- Footer save -->
  <rect x="270" y="690" width="990" height="20" rx="0" fill="#f4f6f9"/>
  <text x="290" y="704" font-size="11" fill="#6c757d">💡 Otomatik kaydetme aktif · Tab ile sonraki öğrenciye geç</text>
  <text x="1255" y="704" text-anchor="end" font-size="11" fill="#198754" font-weight="600">25/28 tamamlandı</text>
</svg>
