<svg xmlns="http://www.w3.org/2000/svg" viewBox="0 0 1280 600" font-family="Inter, system-ui, sans-serif">
  <rect width="1280" height="600" fill="#f4f6f9"/>
  <rect x="0" y="0" width="1280" height="60" fill="#0d6efd"/>
  <text x="24" y="38" font-size="20" fill="#fff">🎓 Bilfen</text>
  <rect x="0" y="60" width="240" height="540" fill="#212529"/>

  <text x="270" y="100" font-size="22" font-weight="700" fill="#212529">📋 Sınavlar</text>
  <rect x="1110" y="85" width="150" height="40" rx="6" fill="#198754"/>
  <text x="1185" y="111" text-anchor="middle" font-size="13" fill="#fff" font-weight="600">+ YENİ SINAV</text>

  <rect x="270" y="150" width="990" height="420" rx="6" fill="#fff" stroke="#dee2e6"/>
  <rect x="270" y="150" width="990" height="40" fill="#f8f9fa"/>
  <line x1="270" y1="190" x2="1260" y2="190" stroke="#dee2e6"/>
  <g font-size="11" fill="#6c757d" font-weight="600">
    <text x="290" y="175">TARİH</text>
    <text x="400" y="175">SINAV ADI</text>
    <text x="650" y="175">DERS</text>
    <text x="780" y="175">SINIF</text>
    <text x="870" y="175">ORTALAMA</text>
    <text x="980" y="175">EN YÜKSEK</text>
    <text x="1090" y="175">DURUM</text>
    <text x="1180" y="175">İŞLEM</text>
  </g>

  <g font-size="12">
    <text x="290" y="215" fill="#495057">08.05.2026</text>
    <text x="400" y="215" fill="#212529" font-weight="600">1. Yazılı</text>
    <text x="650" y="215" fill="#495057">Matematik</text>
    <text x="780" y="215" fill="#495057">9-A</text>
    <text x="870" y="215" fill="#212529" font-weight="600">76.4</text>
    <text x="980" y="215" fill="#198754" font-weight="600">98</text>
    <rect x="1080" y="202" width="60" height="22" rx="11" fill="#fff3cd"/>
    <text x="1110" y="217" text-anchor="middle" font-size="10" fill="#664d03" font-weight="600">25/28</text>
    <text x="1180" y="215" fill="#0d6efd">Açık ›</text>
    <line x1="270" y1="232" x2="1260" y2="232" stroke="#f1f3f5"/>

    <text x="290" y="252" fill="#495057">02.05.2026</text>
    <text x="400" y="252" fill="#212529" font-weight="600">Hafta İçi Quiz</text>
    <text x="650" y="252" fill="#495057">Türkçe</text>
    <text x="780" y="252" fill="#495057">9-B</text>
    <text x="870" y="252" fill="#212529" font-weight="600">82.1</text>
    <text x="980" y="252" fill="#198754" font-weight="600">95</text>
    <rect x="1080" y="239" width="60" height="22" rx="11" fill="#d4edda"/>
    <text x="1110" y="254" text-anchor="middle" font-size="10" fill="#155724" font-weight="600">29/29</text>
    <text x="1180" y="252" fill="#0d6efd">Açık ›</text>
    <line x1="270" y1="269" x2="1260" y2="269" stroke="#f1f3f5"/>

    <text x="290" y="289" fill="#495057">28.04.2026</text>
    <text x="400" y="289" fill="#212529" font-weight="600">2. Yazılı</text>
    <text x="650" y="289" fill="#495057">Fizik</text>
    <text x="780" y="289" fill="#495057">10-A</text>
    <text x="870" y="289" fill="#212529" font-weight="600">68.5</text>
    <text x="980" y="289" fill="#198754" font-weight="600">92</text>
    <rect x="1080" y="276" width="60" height="22" rx="11" fill="#d4edda"/>
    <text x="1110" y="291" text-anchor="middle" font-size="10" fill="#155724" font-weight="600">26/26</text>
    <text x="1180" y="289" fill="#0d6efd">Açık ›</text>
    <line x1="270" y1="306" x2="1260" y2="306" stroke="#f1f3f5"/>

    <text x="290" y="326" fill="#495057">22.04.2026</text>
    <text x="400" y="326" fill="#212529" font-weight="600">Konu Testi</text>
    <text x="650" y="326" fill="#495057">Kimya</text>
    <text x="780" y="326" fill="#495057">11-A</text>
    <text x="870" y="326" fill="#212529" font-weight="600">71.8</text>
    <text x="980" y="326" fill="#198754" font-weight="600">96</text>
    <rect x="1080" y="313" width="60" height="22" rx="11" fill="#d4edda"/>
    <text x="1110" y="328" text-anchor="middle" font-size="10" fill="#155724" font-weight="600">22/22</text>
    <text x="1180" y="326" fill="#0d6efd">Açık ›</text>
    <line x1="270" y1="343" x2="1260" y2="343" stroke="#f1f3f5"/>

    <text x="290" y="363" fill="#495057">15.04.2026</text>
    <text x="400" y="363" fill="#212529" font-weight="600">1. Yazılı</text>
    <text x="650" y="363" fill="#495057">Matematik</text>
    <text x="780" y="363" fill="#495057">9-A</text>
    <text x="870" y="363" fill="#212529" font-weight="600">73.2</text>
    <text x="980" y="363" fill="#198754" font-weight="600">95</text>
    <rect x="1080" y="350" width="60" height="22" rx="11" fill="#d4edda"/>
    <text x="1110" y="365" text-anchor="middle" font-size="10" fill="#155724" font-weight="600">28/28</text>
    <text x="1180" y="363" fill="#0d6efd">Açık ›</text>
    <line x1="270" y1="380" x2="1260" y2="380" stroke="#f1f3f5"/>

    <text x="290" y="400" fill="#495057">10.04.2026</text>
    <text x="400" y="400" fill="#212529" font-weight="600">Telafi Sınavı</text>
    <text x="650" y="400" fill="#495057">Biyoloji</text>
    <text x="780" y="400" fill="#495057">12-A</text>
    <text x="870" y="400" fill="#212529" font-weight="600">78.0</text>
    <text x="980" y="400" fill="#198754" font-weight="600">100</text>
    <rect x="1080" y="387" width="60" height="22" rx="11" fill="#d4edda"/>
    <text x="1110" y="402" text-anchor="middle" font-size="10" fill="#155724" font-weight="600">3/3</text>
    <text x="1180" y="400" fill="#0d6efd">Açık ›</text>
  </g>
</svg>
