<svg xmlns="http://www.w3.org/2000/svg" viewBox="0 0 1280 600" font-family="Inter, system-ui, sans-serif">
  <rect width="1280" height="600" fill="#f4f6f9"/>
  <rect x="0" y="0" width="1280" height="60" fill="#0d6efd"/>
  <text x="24" y="38" font-size="20" fill="#fff">🎓 Bilfen</text>
  <rect x="0" y="60" width="240" height="540" fill="#212529"/>

  <text x="270" y="100" font-size="22" font-weight="700" fill="#212529">🏆 Sıralama — 2026 Mayıs TYT</text>

  <!-- Tabs -->
  <g>
    <rect x="270" y="140" width="200" height="34" rx="6" fill="#0d6efd"/>
    <text x="370" y="162" text-anchor="middle" font-size="12" fill="#fff" font-weight="600">Sınıf İçi</text>
    <rect x="475" y="140" width="200" height="34" rx="6" fill="#fff" stroke="#dee2e6"/>
    <text x="575" y="162" text-anchor="middle" font-size="12" fill="#495057">Dershane Geneli</text>
    <rect x="680" y="140" width="200" height="34" rx="6" fill="#fff" stroke="#dee2e6"/>
    <text x="780" y="162" text-anchor="middle" font-size="12" fill="#495057">Türkiye Geneli</text>
  </g>

  <!-- Top 3 podium -->
  <rect x="270" y="195" width="990" height="180" rx="6" fill="#fff" stroke="#dee2e6"/>
  <text x="290" y="225" font-size="13" font-weight="700" fill="#212529">🏆 İLK 3</text>

  <g transform="translate(450,250)">
    <!-- 2nd -->
    <circle cx="0" cy="0" r="40" fill="#e9ecef"/>
    <text x="0" y="6" text-anchor="middle" font-size="22" fill="#6c757d">🥈</text>
    <text x="0" y="65" text-anchor="middle" font-size="12" font-weight="700" fill="#212529">Demo Öğrenci 17</text>
    <text x="0" y="82" text-anchor="middle" font-size="10" fill="#6c757d">11-A · 108.0 net</text>
  </g>

  <g transform="translate(640,235)">
    <!-- 1st -->
    <circle cx="0" cy="0" r="48" fill="#fff8e1"/>
    <text x="0" y="10" text-anchor="middle" font-size="28" fill="#fd7e14">🥇</text>
    <text x="0" y="80" text-anchor="middle" font-size="13" font-weight="700" fill="#212529">Demo Öğrenci 3</text>
    <text x="0" y="97" text-anchor="middle" font-size="11" fill="#198754" font-weight="600">9-A · 114.0 net · %95</text>
  </g>

  <g transform="translate(830,255)">
    <!-- 3rd -->
    <circle cx="0" cy="0" r="38" fill="#fdf3e9"/>
    <text x="0" y="6" text-anchor="middle" font-size="22" fill="#cd7f32">🥉</text>
    <text x="0" y="60" text-anchor="middle" font-size="12" font-weight="700" fill="#212529">Demo Öğrenci 22</text>
    <text x="0" y="77" text-anchor="middle" font-size="10" fill="#6c757d">9-B · 103.0 net</text>
  </g>

  <!-- Genel ranking -->
  <rect x="270" y="395" width="990" height="190" rx="6" fill="#fff" stroke="#dee2e6"/>
  <text x="290" y="425" font-size="13" font-weight="700" fill="#212529">Genel Sıralama (4–20)</text>
  <line x1="290" y1="438" x2="1240" y2="438" stroke="#e9ecef"/>

  <g font-size="11">
    <text x="290" y="465" fill="#212529" font-weight="600">4. Demo Öğrenci 1 (9-A)</text>
    <text x="600" y="465" fill="#495057">92.0 net</text>
    <text x="290" y="487" fill="#212529" font-weight="600">5. Demo Öğrenci 8 (10-A)</text>
    <text x="600" y="487" fill="#495057">87.0 net</text>
    <text x="290" y="509" fill="#212529">6. Demo Öğrenci 5 (9-A)</text>
    <text x="600" y="509" fill="#495057">82.5 net</text>
    <text x="290" y="531" fill="#212529">7. Demo Öğrenci 13 (12-A)</text>
    <text x="600" y="531" fill="#495057">79.0 net</text>
    <text x="290" y="553" fill="#212529">8. Demo Öğrenci 31 (10-B)</text>
    <text x="600" y="553" fill="#495057">76.5 net</text>

    <text x="700" y="465" fill="#212529">9. Demo Öğrenci 7 (9-A)</text>
    <text x="1000" y="465" fill="#495057">74.0 net</text>
    <text x="700" y="487" fill="#212529">10. Demo Öğrenci 19 (11-A)</text>
    <text x="1000" y="487" fill="#495057">71.5 net</text>
    <text x="700" y="509" fill="#212529">11. Demo Öğrenci 28 (10-B)</text>
    <text x="1000" y="509" fill="#495057">68.0 net</text>
    <text x="700" y="531" fill="#212529">12. Demo Öğrenci 44 (9-A)</text>
    <text x="1000" y="531" fill="#495057">65.5 net</text>
    <text x="700" y="553" fill="#adb5bd" font-style="italic">... 103 öğrenci daha</text>
  </g>
</svg>
