<svg xmlns="http://www.w3.org/2000/svg" viewBox="0 0 420 720" font-family="Inter, system-ui, sans-serif">
  <rect width="420" height="720" fill="#e9ecef"/>
  <rect x="20" y="20" width="380" height="680" rx="32" fill="#212529"/>
  <rect x="34" y="34" width="352" height="652" rx="22" fill="#fff"/>
  <rect x="160" y="40" width="100" height="22" rx="11" fill="#212529"/>

  <rect x="34" y="70" width="352" height="50" fill="#0d6efd"/>
  <text x="50" y="100" font-size="14" fill="#fff" font-weight="700">📊 Deneme Sonuçları</text>

  <text x="50" y="150" font-size="11" fill="#6c757d">2026 MAYIS TYT</text>
  <text x="50" y="170" font-size="14" font-weight="700" fill="#212529">Demo Öğrenci 1 · 9-A</text>

  <!-- Net result -->
  <rect x="50" y="190" width="320" height="120" rx="10" fill="#198754"/>
  <text x="68" y="215" font-size="11" fill="#fff" opacity="0.9" font-weight="600">TOPLAM NET</text>
  <text x="350" y="265" text-anchor="end" font-size="48" font-weight="700" fill="#fff">92.0</text>
  <text x="68" y="290" font-size="11" fill="#fff" opacity="0.95">▲ Önceki denemeye göre +8.5</text>

  <!-- Ranking -->
  <rect x="50" y="325" width="155" height="80" rx="6" fill="#fff" stroke="#dee2e6"/>
  <text x="68" y="350" font-size="10" fill="#6c757d" font-weight="600">SINIF SIRASI</text>
  <text x="68" y="385" font-size="22" font-weight="700" fill="#0d6efd">4 / 28</text>

  <rect x="215" y="325" width="155" height="80" rx="6" fill="#fff" stroke="#dee2e6"/>
  <text x="233" y="350" font-size="10" fill="#6c757d" font-weight="600">DERSHANE SIRASI</text>
  <text x="233" y="385" font-size="22" font-weight="700" fill="#0d6efd">12 / 115</text>

  <text x="50" y="435" font-size="13" font-weight="700" fill="#212529">DERS BAZLI</text>

  <g font-size="11">
    <text x="50" y="465" fill="#495057">Türkçe</text>
    <text x="370" y="465" text-anchor="end" font-weight="700" fill="#198754">32.0</text>
    <rect x="50" y="470" width="320" height="5" rx="2" fill="#e9ecef"/>
    <rect x="50" y="470" width="256" height="5" rx="2" fill="#198754"/>

    <text x="50" y="500" fill="#495057">Matematik</text>
    <text x="370" y="500" text-anchor="end" font-weight="700" fill="#198754">30.5</text>
    <rect x="50" y="505" width="320" height="5" rx="2" fill="#e9ecef"/>
    <rect x="50" y="505" width="244" height="5" rx="2" fill="#198754"/>

    <text x="50" y="535" fill="#495057">Fen Bilimleri</text>
    <text x="370" y="535" text-anchor="end" font-weight="700" fill="#fd7e14">15.0</text>
    <rect x="50" y="540" width="320" height="5" rx="2" fill="#e9ecef"/>
    <rect x="50" y="540" width="240" height="5" rx="2" fill="#fd7e14"/>

    <text x="50" y="570" fill="#495057">Sosyal Bilgiler</text>
    <text x="370" y="570" text-anchor="end" font-weight="700" fill="#dc3545">14.5</text>
    <rect x="50" y="575" width="320" height="5" rx="2" fill="#e9ecef"/>
    <rect x="50" y="575" width="232" height="5" rx="2" fill="#dc3545"/>
  </g>

  <rect x="50" y="600" width="320" height="60" rx="6" fill="#fff3cd"/>
  <text x="64" y="624" font-size="11" fill="#664d03" font-weight="700">⚠️  Öneri</text>
  <text x="64" y="643" font-size="10" fill="#664d03">Sosyal Bilgiler nettiniz 5 puan düştü.</text>
  <text x="64" y="657" font-size="10" fill="#664d03">Coğrafya konularına çalışılması önerilir.</text>

  <text x="210" y="688" text-anchor="middle" font-size="9" fill="#6c757d">— Veli mobil portal —</text>
</svg>
