<svg xmlns="http://www.w3.org/2000/svg" viewBox="0 0 1280 500" font-family="Inter, system-ui, sans-serif">
  <rect width="1280" height="500" fill="#f4f6f9"/>
  <rect x="0" y="0" width="1280" height="60" fill="#0d6efd"/>
  <text x="24" y="38" font-size="20" fill="#fff">🎓 Bilfen</text>
  <rect x="0" y="60" width="240" height="440" fill="#212529"/>

  <text x="270" y="100" font-size="22" font-weight="700" fill="#212529">🏦 Banka Hesapları</text>
  <rect x="1110" y="85" width="150" height="40" rx="6" fill="#198754"/>
  <text x="1185" y="111" text-anchor="middle" font-size="13" fill="#fff" font-weight="600">+ YENİ HESAP</text>

  <!-- Account cards -->
  <g transform="translate(270,150)">
    <rect width="320" height="180" rx="10" fill="#0d6efd"/>
    <text x="20" y="35" font-size="11" fill="#fff" opacity="0.85">ZIRAAT BANKASI</text>
    <text x="20" y="55" font-size="14" font-weight="700" fill="#fff">Ana Kasa</text>
    <text x="20" y="100" font-size="13" fill="#fff" font-family="monospace">**** **** **** 1234</text>
    <text x="20" y="125" font-size="11" fill="#fff" opacity="0.85">TR12 0001 0012 3456 7890 12</text>

    <text x="20" y="155" font-size="11" fill="#fff" opacity="0.85">BAKİYE</text>
    <text x="20" y="172" font-size="20" fill="#fff" font-weight="700">85.430,50 ₺</text>
  </g>

  <g transform="translate(615,150)">
    <rect width="320" height="180" rx="10" fill="#198754"/>
    <text x="20" y="35" font-size="11" fill="#fff" opacity="0.85">İŞ BANKASI</text>
    <text x="20" y="55" font-size="14" font-weight="700" fill="#fff">İşletme Hesabı</text>
    <text x="20" y="100" font-size="13" fill="#fff" font-family="monospace">**** **** **** 5678</text>
    <text x="20" y="125" font-size="11" fill="#fff" opacity="0.85">TR45 0006 4000 0011 2233 44</text>

    <text x="20" y="155" font-size="11" fill="#fff" opacity="0.85">BAKİYE</text>
    <text x="20" y="172" font-size="20" fill="#fff" font-weight="700">42.180,00 ₺</text>
  </g>

  <g transform="translate(960,150)">
    <rect width="300" height="180" rx="10" fill="#fd7e14"/>
    <text x="20" y="35" font-size="11" fill="#fff" opacity="0.85">NAKİT</text>
    <text x="20" y="55" font-size="14" font-weight="700" fill="#fff">Kasa</text>
    <text x="20" y="100" font-size="13" fill="#fff" opacity="0.9">Günlük tahsilat</text>
    <text x="20" y="125" font-size="11" fill="#fff" opacity="0.85">Fiziksel kasa</text>

    <text x="20" y="155" font-size="11" fill="#fff" opacity="0.85">BAKİYE</text>
    <text x="20" y="172" font-size="20" fill="#fff" font-weight="700">3.250,00 ₺</text>
  </g>

  <!-- Total -->
  <rect x="270" y="360" width="990" height="100" rx="6" fill="#fff" stroke="#dee2e6"/>
  <text x="290" y="390" font-size="13" font-weight="700" fill="#212529">📊 TOPLAM VARLIK</text>
  <text x="1240" y="430" text-anchor="end" font-size="36" font-weight="700" fill="#0d6efd">130.860,50 ₺</text>
  <text x="290" y="430" font-size="11" fill="#6c757d">3 hesap aktif · Son güncelleme: 08.05.2026 14:30</text>
  <text x="290" y="448" font-size="11" fill="#198754">▲ Geçen aydan +12.450 ₺</text>
</svg>
