<svg xmlns="http://www.w3.org/2000/svg" viewBox="0 0 1280 500" font-family="Inter, system-ui, sans-serif">
  <rect width="1280" height="500" fill="#f4f6f9"/>
  <rect x="0" y="0" width="1280" height="60" fill="#0d6efd"/>
  <text x="24" y="38" font-size="20" fill="#fff">🎓 Bilfen</text>
  <rect x="0" y="60" width="240" height="440" fill="#212529"/>
  <text x="270" y="100" font-size="22" font-weight="700" fill="#212529">👨‍🏫 Eğitmen Performansı</text>

  <rect x="270" y="140" width="990" height="340" rx="6" fill="#fff" stroke="#dee2e6"/>
  <rect x="270" y="140" width="990" height="36" fill="#f8f9fa"/>
  <line x1="270" y1="176" x2="1260" y2="176" stroke="#dee2e6"/>
  <g font-size="11" fill="#6c757d" font-weight="600">
    <text x="290" y="163">EĞİTMEN</text>
    <text x="490" y="163">DERS</text>
    <text x="610" y="163">ÖĞRENCİ</text>
    <text x="720" y="163">SINAV ORT.</text>
    <text x="850" y="163">DEVAMSIZLIK</text>
    <text x="990" y="163">CIRO ÜRETTİĞİ</text>
    <text x="1140" y="163">PUAN</text>
  </g>

  <g font-size="12">
    <text x="290" y="205" fill="#212529" font-weight="700">⭐ Ali Yılmaz</text>
    <text x="490" y="205" fill="#495057">Matematik</text>
    <text x="630" y="205" fill="#495057">52</text>
    <text x="745" y="205" fill="#198754" font-weight="700">81.4</text>
    <text x="880" y="205" fill="#198754">%2.8</text>
    <text x="1010" y="205" fill="#212529" font-weight="600">624.000 ₺</text>
    <rect x="1135" y="190" width="100" height="22" rx="11" fill="#198754"/>
    <text x="1185" y="205" text-anchor="middle" font-size="11" fill="#fff" font-weight="700">A+</text>
    <line x1="270" y1="220" x2="1260" y2="220" stroke="#f1f3f5"/>

    <text x="290" y="245" fill="#212529" font-weight="600">Ayşe Kaya</text>
    <text x="490" y="245" fill="#495057">Türkçe</text>
    <text x="630" y="245" fill="#495057">48</text>
    <text x="745" y="245" fill="#198754" font-weight="600">79.2</text>
    <text x="880" y="245" fill="#198754">%3.5</text>
    <text x="1010" y="245" fill="#212529" font-weight="600">576.000 ₺</text>
    <rect x="1135" y="230" width="100" height="22" rx="11" fill="#198754"/>
    <text x="1185" y="245" text-anchor="middle" font-size="11" fill="#fff" font-weight="700">A</text>
    <line x1="270" y1="260" x2="1260" y2="260" stroke="#f1f3f5"/>

    <text x="290" y="285" fill="#212529" font-weight="600">Mehmet Demir</text>
    <text x="490" y="285" fill="#495057">Fizik</text>
    <text x="630" y="285" fill="#495057">42</text>
    <text x="745" y="285" fill="#212529" font-weight="600">72.5</text>
    <text x="880" y="285" fill="#fd7e14">%5.4</text>
    <text x="1010" y="285" fill="#212529" font-weight="600">504.000 ₺</text>
    <rect x="1135" y="270" width="100" height="22" rx="11" fill="#0d6efd"/>
    <text x="1185" y="285" text-anchor="middle" font-size="11" fill="#fff" font-weight="700">B+</text>
    <line x1="270" y1="300" x2="1260" y2="300" stroke="#f1f3f5"/>

    <text x="290" y="325" fill="#212529" font-weight="600">Selin Öztürk</text>
    <text x="490" y="325" fill="#495057">Kimya</text>
    <text x="630" y="325" fill="#495057">38</text>
    <text x="745" y="325" fill="#212529" font-weight="600">75.1</text>
    <text x="880" y="325" fill="#198754">%3.1</text>
    <text x="1010" y="325" fill="#212529" font-weight="600">456.000 ₺</text>
    <rect x="1135" y="310" width="100" height="22" rx="11" fill="#198754"/>
    <text x="1185" y="325" text-anchor="middle" font-size="11" fill="#fff" font-weight="700">A-</text>
    <line x1="270" y1="340" x2="1260" y2="340" stroke="#f1f3f5"/>

    <text x="290" y="365" fill="#212529" font-weight="600">Can Yıldız</text>
    <text x="490" y="365" fill="#495057">Biyoloji</text>
    <text x="630" y="365" fill="#495057">35</text>
    <text x="745" y="365" fill="#212529" font-weight="600">68.4</text>
    <text x="880" y="365" fill="#dc3545">%6.8</text>
    <text x="1010" y="365" fill="#212529" font-weight="600">420.000 ₺</text>
    <rect x="1135" y="350" width="100" height="22" rx="11" fill="#fd7e14"/>
    <text x="1185" y="365" text-anchor="middle" font-size="11" fill="#fff" font-weight="700">B</text>
    <line x1="270" y1="380" x2="1260" y2="380" stroke="#f1f3f5"/>

    <text x="290" y="405" fill="#212529">Burak Şen</text>
    <text x="490" y="405" fill="#495057">İngilizce</text>
    <text x="630" y="405" fill="#495057">28</text>
    <text x="745" y="405" fill="#fd7e14" font-weight="600">62.0</text>
    <text x="880" y="405" fill="#dc3545">%8.2</text>
    <text x="1010" y="405" fill="#212529" font-weight="600">336.000 ₺</text>
    <rect x="1135" y="390" width="100" height="22" rx="11" fill="#dc3545"/>
    <text x="1185" y="405" text-anchor="middle" font-size="11" fill="#fff" font-weight="700">C+ ⚠️</text>

    <text x="290" y="445" fill="#adb5bd" font-style="italic">Puan = sınav ortalaması × katılım × tahsilat</text>
  </g>
</svg>
