<svg xmlns="http://www.w3.org/2000/svg" viewBox="0 0 1100 400" font-family="Inter, system-ui, sans-serif">
  <rect width="1100" height="400" fill="#f4f6f9"/>
  <text x="40" y="40" font-size="18" font-weight="700" fill="#212529">📊 Sınav Harç Yıllık (2026)</text>

  <g>
    <rect x="40" y="70" width="320" height="120" rx="8" fill="#d4edda"/>
    <text x="60" y="100" font-size="11" fill="#155724" font-weight="600">✓ TAHSİL EDİLEN</text>
    <text x="60" y="155" font-size="36" font-weight="700" fill="#155724">87.500 ₺</text>
    <text x="60" y="178" font-size="11" fill="#155724">125 başarılı tahsilat</text>

    <rect x="380" y="70" width="320" height="120" rx="8" fill="#fff3cd"/>
    <text x="400" y="100" font-size="11" fill="#664d03" font-weight="600">⏳ ADAY BORÇLU</text>
    <text x="400" y="155" font-size="36" font-weight="700" fill="#664d03">12.500 ₺</text>
    <text x="400" y="178" font-size="11" fill="#664d03">25 aday tahsilatı bekliyor</text>

    <rect x="720" y="70" width="320" height="120" rx="8" fill="#e3f2fd"/>
    <text x="740" y="100" font-size="11" fill="#0d6efd" font-weight="600">📅 SINAV OTURUMU</text>
    <text x="740" y="155" font-size="36" font-weight="700" fill="#0d6efd">8</text>
    <text x="740" y="178" font-size="11" fill="#0d6efd">Yıl içinde gerçekleşen</text>
  </g>

  <!-- Bar chart -->
  <text x="40" y="225" font-size="13" font-weight="700" fill="#212529">AY BAZLI TAHSİL</text>
  <g>
    <rect x="60" y="240" width="80" height="60" fill="#198754"/>
    <text x="100" y="320" text-anchor="middle" font-size="10">Oca</text>
    <rect x="160" y="260" width="80" height="40" fill="#198754"/>
    <text x="200" y="320" text-anchor="middle" font-size="10">Şub</text>
    <rect x="260" y="245" width="80" height="55" fill="#198754"/>
    <text x="300" y="320" text-anchor="middle" font-size="10">Mar</text>
    <rect x="360" y="225" width="80" height="75" fill="#198754"/>
    <text x="400" y="320" text-anchor="middle" font-size="10">Nis</text>
    <rect x="460" y="218" width="80" height="82" fill="#0d6efd"/>
    <text x="500" y="320" text-anchor="middle" font-size="10" font-weight="700" fill="#0d6efd">May</text>
  </g>

  <text x="40" y="360" font-size="11" fill="#6c757d">Yıllık ortalama harç: 700 ₺ · Tahsilat oranı: %87.5</text>
</svg>
