<svg xmlns="http://www.w3.org/2000/svg" viewBox="0 0 1280 600" font-family="Inter, system-ui, sans-serif">
  <rect width="1280" height="600" fill="#f4f6f9"/>
  <rect x="0" y="0" width="1280" height="60" fill="#0d6efd"/>
  <text x="24" y="38" font-size="20" fill="#fff">🎓 Bilfen</text>
  <rect x="0" y="60" width="240" height="540" fill="#212529"/>

  <text x="270" y="100" font-size="22" font-weight="700" fill="#212529">✉️ Toplu E-posta</text>

  <rect x="270" y="140" width="990" height="440" rx="6" fill="#fff" stroke="#dee2e6"/>

  <g font-size="11">
    <text x="290" y="170" fill="#6c757d" font-weight="600">KİME</text>
    <rect x="290" y="180" width="950" height="36" rx="4" fill="#fff" stroke="#ced4da"/>
    <text x="302" y="203" font-size="13" fill="#212529">📋 Tüm veliler (247 kişi) ▾</text>

    <text x="290" y="240" fill="#6c757d" font-weight="600">KONU</text>
    <rect x="290" y="250" width="950" height="36" rx="4" fill="#fff" stroke="#ced4da"/>
    <text x="302" y="273" font-size="13" fill="#212529">2026 Yaz Dönemi Kayıtları Başladı</text>

    <text x="290" y="310" fill="#6c757d" font-weight="600">İÇERİK</text>
    <rect x="290" y="320" width="950" height="180" rx="4" fill="#fff" stroke="#ced4da"/>
    <!-- Editor toolbar -->
    <rect x="290" y="320" width="950" height="32" fill="#f8f9fa"/>
    <text x="302" y="340" font-size="12" fill="#495057">B  I  U   |   • Liste   |   🔗 Link   |   📎 Eklenti   |   👁 Önizle</text>
    <text x="302" y="375" font-size="12" fill="#212529">Sayın veli,</text>
    <text x="302" y="395" font-size="12" fill="#212529"></text>
    <text x="302" y="415" font-size="12" fill="#212529">2026 Yaz Dönemi kayıtları 15 Mayıs Cuma günü başlamıştır. Erken</text>
    <text x="302" y="435" font-size="12" fill="#212529">kayıt yaptıran öğrencilerimiz için %15 indirim avantajı sunulmaktadır.</text>
    <text x="302" y="455" font-size="12" fill="#212529"></text>
    <text x="302" y="475" font-size="12" fill="#212529">Detaylı bilgi için 0312 555 12 34 numarasından bize ulaşabilirsiniz.</text>

    <rect x="700" y="525" width="100" height="36" rx="4" fill="#fff" stroke="#dee2e6"/>
    <text x="750" y="547" text-anchor="middle" font-size="12" fill="#6c757d">Vazgeç</text>
    <rect x="810" y="525" width="100" height="36" rx="4" fill="#0d6efd"/>
    <text x="860" y="547" text-anchor="middle" font-size="12" fill="#fff" font-weight="600">📎 Eklenti</text>
    <rect x="920" y="525" width="100" height="36" rx="4" fill="#fff" stroke="#dee2e6"/>
    <text x="970" y="547" text-anchor="middle" font-size="12" fill="#495057">💾 Taslak</text>
    <rect x="1030" y="525" width="210" height="36" rx="4" fill="#198754"/>
    <text x="1135" y="547" text-anchor="middle" font-size="13" fill="#fff" font-weight="700">📤 GÖNDER (247 kişi)</text>
  </g>
</svg>
