<svg xmlns="http://www.w3.org/2000/svg" viewBox="0 0 1280 500" font-family="Inter, system-ui, sans-serif">
  <rect width="1280" height="500" fill="#f4f6f9"/>
  <rect x="0" y="0" width="1280" height="60" fill="#0d6efd"/>
  <text x="24" y="38" font-size="20" fill="#fff">🎓 Bilfen</text>
  <rect x="0" y="60" width="240" height="440" fill="#212529"/>

  <text x="270" y="100" font-size="22" font-weight="700" fill="#212529">📅 Otomatik Takvim Hatırlatmaları</text>

  <rect x="270" y="140" width="990" height="340" rx="6" fill="#fff" stroke="#dee2e6"/>

  <g font-size="13">
    <rect x="290" y="160" width="950" height="64" rx="6" fill="#e3f2fd"/>
    <rect x="290" y="160" width="4" height="64" fill="#0d6efd"/>
    <text x="310" y="185" fill="#212529" font-weight="700">📊 Yarın TYT denemesi</text>
    <text x="310" y="206" fill="#6c757d" font-size="11">115 öğrencinin velisine SMS gönderildi · Saat 09:00 hatırlatması · Bugün 18:00'de gönderilecek</text>
    <text x="1220" y="200" text-anchor="end" fill="#0d6efd" font-size="11">⚡ Otomatik</text>

    <rect x="290" y="240" width="950" height="64" rx="6" fill="#fff8e1"/>
    <rect x="290" y="240" width="4" height="64" fill="#fd7e14"/>
    <text x="310" y="265" fill="#212529" font-weight="700">⚠️  Geciken taksit hatırlatması</text>
    <text x="310" y="286" fill="#6c757d" font-size="11">12 veliye 'taksit ödeme' SMS'i · 2026-05-08 09:00 · Otomatik haftalık tekrar</text>
    <text x="1220" y="280" text-anchor="end" fill="#fd7e14" font-size="11">⚡ Aktif</text>

    <rect x="290" y="320" width="950" height="64" rx="6" fill="#d4edda"/>
    <rect x="290" y="320" width="4" height="64" fill="#198754"/>
    <text x="310" y="345" fill="#212529" font-weight="700">🎓 Veli toplantısı</text>
    <text x="310" y="366" fill="#6c757d" font-size="11">12 Mayıs Cuma · Tüm velilere 1 hafta önceden duyuru + 1 gün önceden hatırlatma</text>
    <text x="1220" y="360" text-anchor="end" fill="#198754" font-size="11">⚡ Programlı</text>

    <rect x="290" y="400" width="950" height="64" rx="6" fill="#fff" stroke="#dee2e6"/>
    <rect x="290" y="400" width="4" height="64" fill="#6c757d"/>
    <text x="310" y="425" fill="#495057" font-weight="700">🍔 Bayram tatili duyurusu</text>
    <text x="310" y="446" fill="#6c757d" font-size="11">1-3 Haziran · Kapalı olacağız · Tüm velilere 1 hafta önceden gönderilecek</text>
    <text x="1220" y="440" text-anchor="end" fill="#6c757d" font-size="11">⏳ Bekliyor</text>
  </g>
</svg>
