<svg xmlns="http://www.w3.org/2000/svg" viewBox="0 0 1280 600" font-family="Inter, system-ui, sans-serif">
  <rect width="1280" height="600" fill="#f4f6f9"/>
  <rect x="0" y="0" width="1280" height="60" fill="#0d6efd"/>
  <text x="24" y="38" font-size="20" fill="#fff">🎓 Bilfen</text>
  <rect x="0" y="60" width="240" height="540" fill="#212529"/>
  <text x="270" y="100" font-size="22" font-weight="700" fill="#212529">⚙️ Sistem Ayarları</text>

  <g font-size="13">
    <rect x="270" y="140" width="310" height="120" rx="8" fill="#fff" stroke="#dee2e6"/>
    <text x="290" y="170" font-size="28">🏢</text>
    <text x="290" y="200" font-weight="700" fill="#212529">Genel Ayarlar</text>
    <text x="290" y="222" font-size="11" fill="#6c757d">Kurum adı, logo, iletişim</text>
    <text x="560" y="245" text-anchor="end" font-size="11" fill="#0d6efd">Aç ›</text>

    <rect x="600" y="140" width="310" height="120" rx="8" fill="#fff" stroke="#dee2e6"/>
    <text x="620" y="170" font-size="28">📚</text>
    <text x="620" y="200" font-weight="700" fill="#212529">Akademik Tanımlar</text>
    <text x="620" y="222" font-size="11" fill="#6c757d">Dönem, sınıf, ders</text>
    <text x="890" y="245" text-anchor="end" font-size="11" fill="#0d6efd">Aç ›</text>

    <rect x="930" y="140" width="330" height="120" rx="8" fill="#fff" stroke="#dee2e6"/>
    <text x="950" y="170" font-size="28">💰</text>
    <text x="950" y="200" font-weight="700" fill="#212529">Muhasebe Ayarları</text>
    <text x="950" y="222" font-size="11" fill="#6c757d">Kategori, banka hesabı</text>
    <text x="1240" y="245" text-anchor="end" font-size="11" fill="#0d6efd">Aç ›</text>

    <rect x="270" y="280" width="310" height="120" rx="8" fill="#fff" stroke="#dee2e6"/>
    <text x="290" y="310" font-size="28">📱</text>
    <text x="290" y="340" font-weight="700" fill="#212529">İletişim (SMS / Mail)</text>
    <text x="290" y="362" font-size="11" fill="#6c757d">Sağlayıcı + API anahtarları</text>
    <text x="560" y="385" text-anchor="end" font-size="11" fill="#0d6efd">Aç ›</text>

    <rect x="600" y="280" width="310" height="120" rx="8" fill="#fff" stroke="#dee2e6"/>
    <text x="620" y="310" font-size="28">🔒</text>
    <text x="620" y="340" font-weight="700" fill="#212529">Güvenlik</text>
    <text x="620" y="362" font-size="11" fill="#6c757d">Şifre kuralı, oturum süresi</text>
    <text x="890" y="385" text-anchor="end" font-size="11" fill="#0d6efd">Aç ›</text>

    <rect x="930" y="280" width="330" height="120" rx="8" fill="#fff" stroke="#dee2e6"/>
    <text x="950" y="310" font-size="28">☁️</text>
    <text x="950" y="340" font-weight="700" fill="#212529">Yedekleme</text>
    <text x="950" y="362" font-size="11" fill="#6c757d">DB yedek al / geri yükle</text>
    <text x="1240" y="385" text-anchor="end" font-size="11" fill="#0d6efd">Aç ›</text>

    <rect x="270" y="420" width="310" height="120" rx="8" fill="#fff" stroke="#0d6efd" stroke-width="2"/>
    <text x="290" y="450" font-size="28">🛡️</text>
    <text x="290" y="480" font-weight="700" fill="#0d6efd">Yetkilendirme Matrisi</text>
    <text x="290" y="502" font-size="11" fill="#6c757d">Rol-modül izinleri</text>
    <text x="560" y="525" text-anchor="end" font-size="11" fill="#0d6efd">Aç ›</text>

    <rect x="600" y="420" width="310" height="120" rx="8" fill="#fff" stroke="#dee2e6"/>
    <text x="620" y="450" font-size="28">📋</text>
    <text x="620" y="480" font-weight="700" fill="#212529">Denetim Kaydı</text>
    <text x="620" y="502" font-size="11" fill="#6c757d">Tüm işlemlerin geçmişi</text>
    <text x="890" y="525" text-anchor="end" font-size="11" fill="#0d6efd">Aç ›</text>

    <rect x="930" y="420" width="330" height="120" rx="8" fill="#fff" stroke="#dee2e6"/>
    <text x="950" y="450" font-size="28">👥</text>
    <text x="950" y="480" font-weight="700" fill="#212529">Kullanıcı Yönetimi</text>
    <text x="950" y="502" font-size="11" fill="#6c757d">Personel + erişim</text>
    <text x="1240" y="525" text-anchor="end" font-size="11" fill="#0d6efd">Aç ›</text>
  </g>
</svg>
