<svg xmlns="http://www.w3.org/2000/svg" viewBox="0 0 1100 400" font-family="Inter, system-ui, sans-serif">
  <rect width="1100" height="400" fill="#f4f6f9"/>
  <text x="40" y="40" font-size="18" font-weight="700" fill="#212529">📚 Dönemler</text>
  <rect x="950" y="20" width="120" height="36" rx="6" fill="#198754"/>
  <text x="1010" y="42" text-anchor="middle" font-size="12" fill="#fff" font-weight="600">+ Yeni Dönem</text>

  <rect x="40" y="70" width="1020" height="320" rx="6" fill="#fff" stroke="#dee2e6"/>
  <rect x="40" y="70" width="1020" height="36" fill="#f8f9fa"/>
  <line x1="40" y1="106" x2="1060" y2="106" stroke="#dee2e6"/>
  <g font-size="11" fill="#6c757d" font-weight="600">
    <text x="60" y="93">DÖNEM ADI</text>
    <text x="380" y="93">BAŞLANGIÇ</text>
    <text x="540" y="93">BİTİŞ</text>
    <text x="700" y="93">ÖĞRENCİ</text>
    <text x="820" y="93">DURUM</text>
    <text x="970" y="93">İŞLEM</text>
  </g>
  <g font-size="12">
    <text x="60" y="135" fill="#212529" font-weight="700">2025-2026 Bahar</text>
    <text x="380" y="135" fill="#495057">01.02.2026</text>
    <text x="540" y="135" fill="#495057">30.06.2026</text>
    <text x="700" y="135" fill="#495057">247</text>
    <rect x="810" y="122" width="60" height="22" rx="11" fill="#198754"/>
    <text x="840" y="137" text-anchor="middle" font-size="10" fill="#fff" font-weight="600">Aktif</text>
    <text x="970" y="135" fill="#0d6efd">✏️ 🗑</text>
    <line x1="40" y1="150" x2="1060" y2="150" stroke="#f1f3f5"/>

    <text x="60" y="170" fill="#212529">2025-2026 Güz</text>
    <text x="380" y="170" fill="#495057">15.09.2025</text>
    <text x="540" y="170" fill="#495057">31.01.2026</text>
    <text x="700" y="170" fill="#495057">235</text>
    <rect x="810" y="157" width="60" height="22" rx="11" fill="#6c757d"/>
    <text x="840" y="172" text-anchor="middle" font-size="10" fill="#fff" font-weight="600">Kapalı</text>
    <text x="970" y="170" fill="#0d6efd">📥</text>
    <line x1="40" y1="185" x2="1060" y2="185" stroke="#f1f3f5"/>

    <text x="60" y="205" fill="#212529">2024-2025 Bahar</text>
    <text x="380" y="205" fill="#495057">01.02.2025</text>
    <text x="540" y="205" fill="#495057">30.06.2025</text>
    <text x="700" y="205" fill="#495057">218</text>
    <rect x="810" y="192" width="60" height="22" rx="11" fill="#6c757d"/>
    <text x="840" y="207" text-anchor="middle" font-size="10" fill="#fff" font-weight="600">Kapalı</text>
    <text x="970" y="205" fill="#0d6efd">📥</text>

    <text x="60" y="265" fill="#adb5bd" font-style="italic">... 4 dönem daha</text>
  </g>

  <text x="60" y="350" font-size="11" fill="#6c757d">Yeni öğrenci kaydı yalnızca aktif dönemde yapılabilir</text>
</svg>
