<svg xmlns="http://www.w3.org/2000/svg" viewBox="0 0 1100 360" font-family="Inter, system-ui, sans-serif">
  <rect width="1100" height="360" fill="#f4f6f9"/>
  <text x="40" y="40" font-size="18" font-weight="700" fill="#212529">📖 Dersler</text>
  <rect x="950" y="20" width="120" height="36" rx="6" fill="#198754"/>
  <text x="1010" y="42" text-anchor="middle" font-size="12" fill="#fff" font-weight="600">+ Yeni Ders</text>

  <rect x="40" y="70" width="1020" height="280" rx="6" fill="#fff" stroke="#dee2e6"/>
  <rect x="40" y="70" width="1020" height="36" fill="#f8f9fa"/>
  <line x1="40" y1="106" x2="1060" y2="106" stroke="#dee2e6"/>
  <g font-size="11" fill="#6c757d" font-weight="600">
    <text x="60" y="93">DERS</text>
    <text x="280" y="93">KOD</text>
    <text x="400" y="93">SINIF</text>
    <text x="540" y="93">SAATİ/HAFTA</text>
    <text x="700" y="93">EĞİTMEN</text>
    <text x="900" y="93">DURUM</text>
    <text x="1010" y="93">İŞLEM</text>
  </g>

  <g font-size="12">
    <text x="60" y="135" fill="#212529" font-weight="600">Matematik</text>
    <text x="280" y="135" fill="#495057" font-family="monospace">MAT</text>
    <text x="400" y="135" fill="#495057">9-12</text>
    <text x="560" y="135" fill="#495057">8 saat</text>
    <text x="700" y="135" fill="#495057">Ali Yılmaz</text>
    <rect x="890" y="122" width="60" height="22" rx="11" fill="#198754"/>
    <text x="920" y="137" text-anchor="middle" font-size="10" fill="#fff" font-weight="600">Aktif</text>
    <text x="1010" y="135" fill="#0d6efd">✏️ 🗑</text>
    <line x1="40" y1="150" x2="1060" y2="150" stroke="#f1f3f5"/>

    <text x="60" y="170" fill="#212529" font-weight="600">Türkçe / Edebiyat</text>
    <text x="280" y="170" fill="#495057" font-family="monospace">TR</text>
    <text x="400" y="170" fill="#495057">9-12</text>
    <text x="560" y="170" fill="#495057">6 saat</text>
    <text x="700" y="170" fill="#495057">Ayşe Kaya</text>
    <rect x="890" y="157" width="60" height="22" rx="11" fill="#198754"/>
    <text x="920" y="172" text-anchor="middle" font-size="10" fill="#fff" font-weight="600">Aktif</text>
    <text x="1010" y="170" fill="#0d6efd">✏️ 🗑</text>
    <line x1="40" y1="185" x2="1060" y2="185" stroke="#f1f3f5"/>

    <text x="60" y="205" fill="#212529" font-weight="600">Fizik</text>
    <text x="280" y="205" fill="#495057" font-family="monospace">FIZ</text>
    <text x="400" y="205" fill="#495057">10-12</text>
    <text x="560" y="205" fill="#495057">4 saat</text>
    <text x="700" y="205" fill="#495057">Mehmet Demir</text>
    <rect x="890" y="192" width="60" height="22" rx="11" fill="#198754"/>
    <text x="920" y="207" text-anchor="middle" font-size="10" fill="#fff" font-weight="600">Aktif</text>
    <text x="1010" y="205" fill="#0d6efd">✏️ 🗑</text>
    <line x1="40" y1="220" x2="1060" y2="220" stroke="#f1f3f5"/>

    <text x="60" y="240" fill="#212529" font-weight="600">Kimya</text>
    <text x="280" y="240" fill="#495057" font-family="monospace">KIM</text>
    <text x="400" y="240" fill="#495057">10-12</text>
    <text x="560" y="240" fill="#495057">4 saat</text>
    <text x="700" y="240" fill="#495057">Selin Öztürk</text>
    <rect x="890" y="227" width="60" height="22" rx="11" fill="#198754"/>
    <text x="920" y="242" text-anchor="middle" font-size="10" fill="#fff" font-weight="600">Aktif</text>
    <text x="1010" y="240" fill="#0d6efd">✏️ 🗑</text>
    <line x1="40" y1="255" x2="1060" y2="255" stroke="#f1f3f5"/>

    <text x="60" y="275" fill="#212529" font-weight="600">Biyoloji</text>
    <text x="280" y="275" fill="#495057" font-family="monospace">BIO</text>
    <text x="400" y="275" fill="#495057">10-12</text>
    <text x="560" y="275" fill="#495057">3 saat</text>
    <text x="700" y="275" fill="#495057">Can Yıldız</text>
    <rect x="890" y="262" width="60" height="22" rx="11" fill="#198754"/>
    <text x="920" y="277" text-anchor="middle" font-size="10" fill="#fff" font-weight="600">Aktif</text>
    <text x="1010" y="275" fill="#0d6efd">✏️ 🗑</text>

    <text x="60" y="320" fill="#adb5bd" font-style="italic">... 4 ders daha (İngilizce, Tarih, Coğrafya, Felsefe)</text>
  </g>
</svg>
