<svg xmlns="http://www.w3.org/2000/svg" viewBox="0 0 1280 600" font-family="Inter, system-ui, sans-serif">
  <rect width="1280" height="600" fill="#f4f6f9"/>
  <rect x="0" y="0" width="1280" height="60" fill="#0d6efd"/>
  <text x="24" y="38" font-size="20" fill="#fff">🎓 Bilfen</text>
  <rect x="0" y="60" width="240" height="540" fill="#212529"/>

  <text x="270" y="100" font-size="22" font-weight="700" fill="#212529">🏢 Genel Ayarlar</text>

  <rect x="270" y="140" width="990" height="440" rx="6" fill="#fff" stroke="#dee2e6"/>

  <g font-size="11">
    <text x="290" y="170" fill="#6c757d" font-weight="600">KURUM ADI *</text>
    <rect x="290" y="180" width="950" height="36" rx="4" fill="#fff" stroke="#ced4da"/>
    <text x="302" y="203" font-size="13" fill="#212529" font-weight="600">Bilfen Dershanesi</text>
    <text x="302" y="226" font-size="10" fill="#6c757d">Üst banner ve makbuzlarda görünür</text>

    <text x="290" y="260" fill="#6c757d" font-weight="600">LOGO</text>
    <rect x="290" y="270" width="200" height="120" rx="4" fill="#f8f9fa" stroke="#dee2e6" stroke-dasharray="4 4"/>
    <text x="390" y="335" text-anchor="middle" font-size="32">🎓</text>
    <text x="390" y="360" text-anchor="middle" font-size="11" fill="#6c757d">Logo yüklemek için tıklayın</text>
    <text x="390" y="375" text-anchor="middle" font-size="10" fill="#adb5bd">PNG/JPG · 200×60 önerilir</text>

    <rect x="510" y="270" width="200" height="120" rx="4" fill="#fff" stroke="#dee2e6"/>
    <text x="610" y="320" text-anchor="middle" font-size="14" font-weight="700" fill="#0d6efd">[Önizleme]</text>
    <rect x="525" y="335" width="170" height="40" rx="4" fill="#0d6efd"/>
    <text x="610" y="360" text-anchor="middle" font-size="14" fill="#fff" font-weight="700">🎓 BILFEN</text>

    <text x="290" y="425" fill="#6c757d" font-weight="600">İLETİŞİM E-POSTA</text>
    <rect x="290" y="435" width="320" height="36" rx="4" fill="#fff" stroke="#ced4da"/>
    <text x="302" y="458" font-size="12" fill="#212529">info@bilfen.com</text>

    <text x="630" y="425" fill="#6c757d" font-weight="600">TELEFON</text>
    <rect x="630" y="435" width="320" height="36" rx="4" fill="#fff" stroke="#ced4da"/>
    <text x="642" y="458" font-size="12" fill="#212529">0312 555 12 34</text>

    <text x="970" y="425" fill="#6c757d" font-weight="600">WEB SITESI</text>
    <rect x="970" y="435" width="270" height="36" rx="4" fill="#fff" stroke="#ced4da"/>
    <text x="982" y="458" font-size="12" fill="#212529">www.bilfen.com</text>

    <text x="290" y="500" fill="#6c757d" font-weight="600">ADRES</text>
    <rect x="290" y="510" width="950" height="40" rx="4" fill="#fff" stroke="#ced4da"/>
    <text x="302" y="535" font-size="12" fill="#212529">Atatürk Mah. Cumhuriyet Cad. No:42 · Çankaya / Ankara</text>
  </g>

  <rect x="1090" y="565" width="170" height="32" rx="4" fill="#198754"/>
  <text x="1175" y="586" text-anchor="middle" font-size="12" fill="#fff" font-weight="700">✓ KAYDET</text>
</svg>
