<svg xmlns="http://www.w3.org/2000/svg" viewBox="0 0 1280 600" font-family="Inter, system-ui, sans-serif">
  <rect width="1280" height="600" fill="#f4f6f9"/>
  <rect x="0" y="0" width="1280" height="60" fill="#0d6efd"/>
  <text x="24" y="38" font-size="20" fill="#fff">🎓 Bilfen</text>
  <rect x="0" y="60" width="240" height="540" fill="#212529"/>

  <text x="270" y="100" font-size="22" font-weight="700" fill="#212529">👥 Kullanıcı Yönetimi</text>
  <rect x="1110" y="85" width="150" height="40" rx="6" fill="#198754"/>
  <text x="1185" y="111" text-anchor="middle" font-size="13" fill="#fff" font-weight="600">+ YENİ KULLANICI</text>

  <!-- Filter -->
  <rect x="270" y="150" width="990" height="60" rx="6" fill="#fff" stroke="#dee2e6"/>
  <rect x="290" y="166" width="280" height="30" rx="4" fill="#fff" stroke="#ced4da"/>
  <text x="305" y="186" font-size="12" fill="#adb5bd">🔍 Ad veya kullanıcı adı ara...</text>
  <rect x="585" y="166" width="160" height="30" rx="4" fill="#fff" stroke="#ced4da"/>
  <text x="600" y="186" font-size="12" fill="#495057">Rol: Tümü ▾</text>
  <rect x="760" y="166" width="160" height="30" rx="4" fill="#fff" stroke="#ced4da"/>
  <text x="775" y="186" font-size="12" fill="#495057">Durum: Aktif ▾</text>

  <rect x="270" y="225" width="990" height="365" rx="6" fill="#fff" stroke="#dee2e6"/>
  <rect x="270" y="225" width="990" height="36" fill="#f8f9fa"/>
  <line x1="270" y1="261" x2="1260" y2="261" stroke="#dee2e6"/>
  <g font-size="11" fill="#6c757d" font-weight="600">
    <text x="290" y="248">AD SOYAD</text>
    <text x="490" y="248">KULLANICI ADI</text>
    <text x="650" y="248">ROL</text>
    <text x="800" y="248">SON GİRİŞ</text>
    <text x="940" y="248">DURUM</text>
    <text x="1080" y="248">İŞLEM</text>
  </g>

  <g font-size="12">
    <text x="290" y="288" fill="#212529" font-weight="600">Ahmet Yılmaz</text>
    <text x="490" y="288" fill="#495057" font-family="monospace">ahmet.y</text>
    <rect x="640" y="276" width="100" height="22" rx="11" fill="#dc3545"/>
    <text x="690" y="291" text-anchor="middle" font-size="10" fill="#fff" font-weight="600">SİSTEM YÖN.</text>
    <text x="800" y="288" fill="#495057">Bugün 14:30</text>
    <rect x="935" y="276" width="60" height="22" rx="11" fill="#198754"/>
    <text x="965" y="291" text-anchor="middle" font-size="10" fill="#fff" font-weight="600">Aktif</text>
    <text x="1080" y="288" fill="#0d6efd">✏️ 🔑 🚫</text>
    <line x1="270" y1="305" x2="1260" y2="305" stroke="#f1f3f5"/>

    <text x="290" y="330" fill="#212529" font-weight="600">Mehmet Müdür</text>
    <text x="490" y="330" fill="#495057" font-family="monospace">mehmet.m</text>
    <rect x="640" y="318" width="80" height="22" rx="11" fill="#0d6efd"/>
    <text x="680" y="333" text-anchor="middle" font-size="10" fill="#fff" font-weight="600">YÖNETİCİ</text>
    <text x="800" y="330" fill="#495057">Dün 17:32</text>
    <rect x="935" y="318" width="60" height="22" rx="11" fill="#198754"/>
    <text x="965" y="333" text-anchor="middle" font-size="10" fill="#fff" font-weight="600">Aktif</text>
    <text x="1080" y="330" fill="#0d6efd">✏️ 🔑 🚫</text>
    <line x1="270" y1="347" x2="1260" y2="347" stroke="#f1f3f5"/>

    <text x="290" y="372" fill="#212529" font-weight="600">Ali Yılmaz</text>
    <text x="490" y="372" fill="#495057" font-family="monospace">ali.y</text>
    <rect x="640" y="360" width="80" height="22" rx="11" fill="#198754"/>
    <text x="680" y="375" text-anchor="middle" font-size="10" fill="#fff" font-weight="600">ÖĞRETMEN</text>
    <text x="800" y="372" fill="#495057">Bugün 14:18</text>
    <rect x="935" y="360" width="60" height="22" rx="11" fill="#198754"/>
    <text x="965" y="375" text-anchor="middle" font-size="10" fill="#fff" font-weight="600">Aktif</text>
    <text x="1080" y="372" fill="#0d6efd">✏️ 🔑 🚫</text>
    <line x1="270" y1="389" x2="1260" y2="389" stroke="#f1f3f5"/>

    <text x="290" y="414" fill="#212529" font-weight="600">Ayşe Kaya</text>
    <text x="490" y="414" fill="#495057" font-family="monospace">ayse.k</text>
    <rect x="640" y="402" width="80" height="22" rx="11" fill="#198754"/>
    <text x="680" y="417" text-anchor="middle" font-size="10" fill="#fff" font-weight="600">ÖĞRETMEN</text>
    <text x="800" y="414" fill="#495057">Bugün 09:14</text>
    <rect x="935" y="402" width="60" height="22" rx="11" fill="#198754"/>
    <text x="965" y="417" text-anchor="middle" font-size="10" fill="#fff" font-weight="600">Aktif</text>
    <text x="1080" y="414" fill="#0d6efd">✏️ 🔑 🚫</text>
    <line x1="270" y1="431" x2="1260" y2="431" stroke="#f1f3f5"/>

    <text x="290" y="456" fill="#212529" font-weight="600">Zeynep Muhasebe</text>
    <text x="490" y="456" fill="#495057" font-family="monospace">zeynep.m</text>
    <rect x="640" y="444" width="100" height="22" rx="11" fill="#fd7e14"/>
    <text x="690" y="459" text-anchor="middle" font-size="10" fill="#fff" font-weight="600">MUHASEBECİ</text>
    <text x="800" y="456" fill="#495057">Bugün 11:08</text>
    <rect x="935" y="444" width="60" height="22" rx="11" fill="#198754"/>
    <text x="965" y="459" text-anchor="middle" font-size="10" fill="#fff" font-weight="600">Aktif</text>
    <text x="1080" y="456" fill="#0d6efd">✏️ 🔑 🚫</text>
    <line x1="270" y1="473" x2="1260" y2="473" stroke="#f1f3f5"/>

    <text x="290" y="498" fill="#adb5bd">Burak Şen</text>
    <text x="490" y="498" fill="#adb5bd" font-family="monospace">burak.s</text>
    <rect x="640" y="486" width="80" height="22" rx="11" fill="#198754" opacity="0.5"/>
    <text x="680" y="501" text-anchor="middle" font-size="10" fill="#fff" font-weight="600">ÖĞRETMEN</text>
    <text x="800" y="498" fill="#adb5bd">Hiç giriş yapmadı</text>
    <rect x="935" y="486" width="60" height="22" rx="11" fill="#fd7e14"/>
    <text x="965" y="501" text-anchor="middle" font-size="10" fill="#fff" font-weight="600">Yeni</text>
    <text x="1080" y="498" fill="#0d6efd">✏️ 🔑 ✓</text>
    <line x1="270" y1="515" x2="1260" y2="515" stroke="#f1f3f5"/>

    <text x="290" y="540" fill="#adb5bd" font-style="italic">... 12 personel daha · 247 öğrenci · 247 veli</text>
  </g>
</svg>
