<svg xmlns="http://www.w3.org/2000/svg" viewBox="0 0 800 600" font-family="Inter, system-ui, sans-serif">
  <rect width="800" height="600" fill="rgba(0,0,0,0.5)"/>

  <rect x="80" y="40" width="640" height="520" rx="10" fill="#fff"/>

  <rect x="80" y="40" width="640" height="60" rx="10" fill="#dc3545"/>
  <text x="100" y="78" font-size="18" font-weight="700" fill="#fff">⚠️ Yedeği Geri Yükle</text>
  <text x="690" y="78" text-anchor="end" font-size="20" fill="#fff">✕</text>

  <!-- Warning -->
  <rect x="100" y="120" width="600" height="100" rx="6" fill="#f8d7da"/>
  <text x="120" y="150" font-size="13" fill="#721c24" font-weight="700">🚨 BU İŞLEM GERİ ALINAMAZ</text>
  <text x="120" y="175" font-size="11" fill="#721c24">• Mevcut tüm verileriniz silinecek</text>
  <text x="120" y="193" font-size="11" fill="#721c24">• Sistem otomatik bir "öncesi" yedek alacak</text>
  <text x="120" y="211" font-size="11" fill="#721c24">• İşlem 1-3 dakika sürebilir</text>

  <text x="100" y="250" font-size="12" font-weight="700" fill="#212529">1. YEDEK DOSYASINI SEÇİN</text>
  <rect x="100" y="265" width="600" height="50" rx="6" fill="#fff" stroke="#dc3545" stroke-width="2"/>
  <text x="120" y="290" font-size="12" fill="#212529" font-weight="600">📦 obs_bilfen_20260508_143025.sql.gz</text>
  <text x="120" y="305" font-size="10" fill="#6c757d">8.2 MB · Bugün 14:30 · Format: PostgreSQL gzip</text>
  <rect x="600" y="276" width="80" height="28" rx="4" fill="#fff" stroke="#dee2e6"/>
  <text x="640" y="294" text-anchor="middle" font-size="11" fill="#495057">Değiştir</text>

  <text x="100" y="345" font-size="12" font-weight="700" fill="#212529">2. ONAY METNİNİ YAZIN</text>
  <text x="100" y="365" font-size="11" fill="#6c757d">İşlemi onaylamak için aşağıya tam olarak <tspan font-weight="700" fill="#dc3545">GERI YUKLE</tspan> yazın:</text>
  <rect x="100" y="375" width="600" height="44" rx="6" fill="#fff" stroke="#dc3545" stroke-width="2"/>
  <text x="115" y="403" font-size="14" fill="#212529" font-family="monospace" font-weight="700">GERI YUKLE</text>
  <text x="685" y="402" text-anchor="end" font-size="14" fill="#198754">✓</text>

  <!-- Info bar -->
  <rect x="100" y="440" width="600" height="60" rx="6" fill="#fff8e1"/>
  <text x="120" y="465" font-size="11" font-weight="600" fill="#664d03">ℹ️  ÖN-ÖNCE YEDEK</text>
  <text x="120" y="485" font-size="10" fill="#664d03">Sistem 'oncesi_obs_bilfen_20260508_152030.sql.gz' otomatik alınacak</text>
  <text x="120" y="498" font-size="10" fill="#664d03">→ /var/backups/obs_restore/ (sorun çıkarsa elle geri dönülebilir)</text>

  <!-- Buttons -->
  <line x1="100" y1="525" x2="700" y2="525" stroke="#dee2e6"/>
  <rect x="450" y="540" width="100" height="36" rx="4" fill="#fff" stroke="#dee2e6"/>
  <text x="500" y="562" text-anchor="middle" font-size="12" fill="#6c757d">Vazgeç</text>
  <rect x="560" y="540" width="140" height="36" rx="4" fill="#dc3545"/>
  <text x="630" y="562" text-anchor="middle" font-size="13" fill="#fff" font-weight="700">🔥 GERİ YÜKLE</text>
</svg>
