<svg xmlns="http://www.w3.org/2000/svg" viewBox="0 0 1280 600" font-family="Inter, system-ui, sans-serif">
  <rect width="1280" height="600" fill="#f4f6f9"/>
  <rect x="0" y="0" width="1280" height="60" fill="#0d6efd"/>
  <text x="24" y="38" font-size="20" fill="#fff">🎓 Bilfen</text>
  <rect x="0" y="60" width="240" height="540" fill="#212529"/>

  <text x="270" y="100" font-size="22" font-weight="700" fill="#212529">☁️ Veritabanı Yedekleme</text>

  <!-- Sol: yedek al -->
  <rect x="270" y="140" width="490" height="430" rx="6" fill="#fff" stroke="#198754" stroke-width="2"/>
  <rect x="270" y="140" width="490" height="50" fill="#198754"/>
  <text x="290" y="172" font-size="14" font-weight="700" fill="#fff">📥 Yedek Al</text>

  <text x="290" y="220" font-size="13" font-weight="700" fill="#212529">VERİTABANI BİLGİLERİ</text>
  <line x1="290" y1="232" x2="740" y2="232" stroke="#e9ecef"/>
  <g font-size="12">
    <text x="290" y="260" fill="#6c757d">Tür:</text>
    <text x="450" y="260" fill="#212529" font-weight="600">PostgreSQL 16</text>
    <text x="290" y="285" fill="#6c757d">Veritabanı:</text>
    <text x="450" y="285" fill="#212529" font-family="monospace">obs_bilfen</text>
    <text x="290" y="310" fill="#6c757d">Boyut:</text>
    <text x="450" y="310" fill="#212529" font-weight="600">12.4 MB</text>
    <text x="290" y="335" fill="#6c757d">Son güncelleme:</text>
    <text x="450" y="335" fill="#212529">08.05.2026 14:30</text>
  </g>

  <text x="290" y="385" font-size="13" font-weight="700" fill="#212529">SON YEDEKLER</text>
  <g font-size="11">
    <text x="290" y="410" fill="#495057">📦 obs_bilfen_20260508_143025.sql.gz</text>
    <text x="290" y="430" fill="#6c757d" font-size="10">Bugün 14:30 · 8.2 MB</text>
    <text x="290" y="455" fill="#495057">📦 obs_bilfen_20260507_080000.sql.gz</text>
    <text x="290" y="475" fill="#6c757d" font-size="10">Dün 08:00 (otomatik) · 8.1 MB</text>
    <text x="290" y="500" fill="#495057">📦 obs_bilfen_20260506_080000.sql.gz</text>
    <text x="290" y="520" fill="#6c757d" font-size="10">2 gün önce 08:00 (otomatik) · 8.0 MB</text>
  </g>

  <rect x="290" y="540" width="450" height="40" rx="6" fill="#198754"/>
  <text x="515" y="565" text-anchor="middle" font-size="14" fill="#fff" font-weight="700">📥 YENİ YEDEK İNDİR</text>

  <!-- Sağ: geri yükle -->
  <rect x="780" y="140" width="480" height="430" rx="6" fill="#fff" stroke="#dc3545" stroke-width="2"/>
  <rect x="780" y="140" width="480" height="50" fill="#dc3545"/>
  <text x="800" y="172" font-size="14" font-weight="700" fill="#fff">⚠️ Yedeği Geri Yükle</text>

  <rect x="800" y="210" width="440" height="76" rx="6" fill="#f8d7da"/>
  <text x="820" y="235" font-size="11" font-weight="700" fill="#721c24">⚠️  DİKKAT!</text>
  <text x="820" y="252" font-size="10" fill="#721c24">Bu işlem mevcut tüm verilerinizi siler ve seçtiğiniz</text>
  <text x="820" y="266" font-size="10" fill="#721c24">yedekteki haline döndürür. Geri alınamaz!</text>
  <text x="820" y="280" font-size="10" fill="#721c24">Lütfen başka kimse sistemde çalışmazken yapın.</text>

  <text x="800" y="320" font-size="11" font-weight="600" fill="#6c757d">YEDEK DOSYASI (.sql.gz)</text>
  <rect x="800" y="330" width="440" height="80" rx="6" fill="#f8f9fa" stroke="#dc3545" stroke-dasharray="4 4"/>
  <text x="1020" y="365" text-anchor="middle" font-size="32">⬆️</text>
  <text x="1020" y="395" text-anchor="middle" font-size="11" fill="#6c757d">Dosyayı sürükle veya tıklayıp seç</text>

  <text x="800" y="440" font-size="11" font-weight="600" fill="#6c757d">ONAY METNİ</text>
  <rect x="800" y="450" width="440" height="36" rx="4" fill="#fff" stroke="#dc3545"/>
  <text x="812" y="473" font-size="12" fill="#212529" font-family="monospace">GERI YUKLE</text>
  <text x="800" y="500" font-size="10" fill="#dc3545" font-weight="600">Geri yükleme için tam olarak "GERI YUKLE" yazın</text>

  <rect x="800" y="525" width="440" height="40" rx="6" fill="#dc3545"/>
  <text x="1020" y="550" text-anchor="middle" font-size="14" fill="#fff" font-weight="700">🔥 GERİ YÜKLEMEYE BAŞLA</text>
</svg>
